<?xml version="1.0" encoding="utf-8"?>
<!-- Generator: Adobe Illustrator 27.5.0, SVG Export Plug-In . SVG Version: 6.00 Build 0)  -->
<svg version="1.1" id="Layer_1" xmlns="http://www.w3.org/2000/svg" xmlns:xlink="http://www.w3.org/1999/xlink" x="0px" y="0px"
	 viewBox="0 0 399.399 229.838" style="enable-background:new 0 0 399.399 229.838;" xml:space="preserve">
<g>
	<g>
		<g>
			<path style="fill:#DEDEDE;" d="M296.327,198.31c0,14.971-64.779,27.111-144.681,27.111c-79.907,0-144.685-12.14-144.685-27.111
				c0-14.977,64.778-27.118,144.685-27.118C231.548,171.191,296.327,183.333,296.327,198.31z"/>
			<path style="fill:#5E2C00;" d="M151.646,226.39c-71.598,0-145.655-10.503-145.655-28.081c0-9.949,23.475-16.438,43.169-20.129
				c27.384-5.132,63.781-7.959,102.486-7.959c71.595,0,145.651,10.506,145.651,28.088c0,9.945-23.475,16.432-43.168,20.122
				C226.743,223.564,190.347,226.39,151.646,226.39z M151.646,172.161c-77.901,0-143.715,11.975-143.715,26.148
				c0,14.17,65.814,26.141,143.715,26.141c77.899,0,143.711-11.971,143.711-26.141C295.357,184.136,229.545,172.161,151.646,172.161
				z"/>
		</g>
		<g>
			<path style="fill:#DEDEDE;" d="M296.327,194.824c0,14.976-64.779,27.116-144.681,27.116c-79.907,0-144.685-12.14-144.685-27.116
				c0-14.977,64.778-27.113,144.685-27.113C231.548,167.711,296.327,179.847,296.327,194.824z"/>
			<path style="fill:#5E2C00;" d="M151.646,222.91c-71.598,0-145.655-10.506-145.655-28.087c0-9.948,23.475-16.436,43.169-20.125
				c27.383-5.131,63.78-7.957,102.486-7.957c71.595,0,145.651,10.504,145.651,28.083c0,9.949-23.475,16.437-43.168,20.128
				C226.745,220.083,190.349,222.91,151.646,222.91z M151.646,168.681c-38.59,0-74.86,2.814-102.129,7.924
				c-26.428,4.952-41.586,11.592-41.586,18.219c0,14.173,65.814,26.146,143.715,26.146c77.899,0,143.711-11.974,143.711-26.146
				c0-6.626-15.157-13.267-41.586-18.219C226.503,171.495,190.234,168.681,151.646,168.681z"/>
		</g>
		<g>
			<path style="fill:#9FA1A4;" d="M279.569,191.686c0,13.24-57.277,23.975-127.926,23.975c-70.653,0-127.926-10.734-127.926-23.975
				c0-13.241,57.274-23.975,127.926-23.975C222.292,167.711,279.569,178.445,279.569,191.686z"/>
			<path style="fill:#5E2C00;" d="M151.643,216.63c-63.359,0-128.896-9.331-128.896-24.944c0-15.614,65.537-24.945,128.896-24.945
				s128.896,9.331,128.896,24.945C280.539,207.3,215.003,216.63,151.643,216.63z M151.643,168.681
				c-75.942,0-126.956,11.896-126.956,23.005c0,11.11,51.014,23.004,126.956,23.004s126.956-11.895,126.956-23.004
				C278.599,180.577,227.585,168.681,151.643,168.681z"/>
		</g>
		<g>
			<polygon style="fill:#DEDEDE;" points="160.219,149.396 157.857,149.396 153.2,149.396 150.838,149.396 147.224,177.46 
				164.983,176.451 			"/>
			<path style="fill:#5E2C00;" d="M147.224,178.43c-0.269,0-0.525-0.112-0.71-0.309c-0.196-0.211-0.289-0.499-0.252-0.786
				l3.615-28.063c0.062-0.484,0.474-0.846,0.962-0.846h9.38c0.471,0,0.874,0.338,0.956,0.801l4.765,27.055
				c0.048,0.273-0.023,0.553-0.195,0.771c-0.172,0.217-0.429,0.351-0.705,0.366l-17.76,1.009
				C147.26,178.429,147.242,178.43,147.224,178.43z M151.691,150.367l-3.356,26.059l15.504-0.881l-4.434-25.178H151.691z"/>
		</g>
		<g>
			<g>
				<path style="fill:#4E5153;" d="M253.921,189.055c0,10.586-45.791,19.167-102.275,19.167c-56.489,0-102.276-8.581-102.276-19.167
					c0-10.59,45.787-19.172,102.276-19.172C208.13,169.883,253.921,178.464,253.921,189.055z"/>
				<path style="fill:#5E2C00;" d="M151.646,209.192c-50.751,0-103.246-7.533-103.246-20.137c0-12.608,52.495-20.142,103.246-20.142
					c50.751,0,103.246,7.534,103.246,20.142C254.892,201.659,202.397,209.192,151.646,209.192z M151.646,170.853
					c-60.599,0-101.306,9.411-101.306,18.202c0,8.788,40.708,18.197,101.306,18.197c60.599,0,101.306-9.409,101.306-18.197
					C252.952,180.264,212.245,170.853,151.646,170.853z"/>
			</g>
			<g>
				<path style="fill:#9FA1A4;" d="M245.675,187.505c0,9.736-42.097,17.626-94.029,17.626c-51.936,0-94.035-7.89-94.035-17.626
					c0-9.732,42.098-17.622,94.035-17.622C203.578,169.883,245.675,177.773,245.675,187.505z"/>
				<path style="fill:#5E2C00;" d="M151.646,206.101c-46.7,0-95.004-6.956-95.004-18.596c0-11.638,48.304-18.592,95.004-18.592
					c46.697,0,94.999,6.954,94.999,18.592C246.645,199.145,198.343,206.101,151.646,206.101z M151.646,170.853
					c-55.669,0-93.064,8.611-93.064,16.652c0,8.044,37.395,16.656,93.064,16.656c55.666,0,93.059-8.612,93.059-16.656
					C244.705,179.464,207.312,170.853,151.646,170.853z"/>
			</g>
		</g>
		<g>
			<polygon style="fill:#DEDEDE;" points="262.833,171.665 261.213,171.665 258.02,171.665 256.4,171.665 253.921,194.826 
				266.101,194.824 			"/>
			<path style="fill:#5E2C00;" d="M253.921,195.795c-0.275,0-0.538-0.116-0.721-0.321c-0.184-0.205-0.272-0.479-0.243-0.752
				l2.479-23.161c0.053-0.493,0.468-0.867,0.964-0.867h6.433c0.483,0,0.893,0.357,0.961,0.835l3.267,23.159
				c0.039,0.279-0.044,0.56-0.228,0.772c-0.184,0.211-0.451,0.333-0.732,0.333L253.921,195.795z M257.272,172.635l-2.271,21.221
				l9.983-0.002l-2.993-21.219H257.272z"/>
		</g>
		<g>
			<polygon style="fill:#DEDEDE;" points="46.102,171.665 44.482,171.665 41.29,171.665 39.67,171.665 37.191,194.826 
				49.37,194.824 			"/>
			<path style="fill:#5E2C00;" d="M37.191,195.795c-0.275,0-0.538-0.116-0.721-0.321c-0.185-0.205-0.272-0.479-0.243-0.752
				l2.479-23.161c0.053-0.493,0.468-0.867,0.964-0.867h6.432c0.484,0,0.893,0.357,0.961,0.835l3.268,23.159
				c0.039,0.279-0.044,0.56-0.229,0.772c-0.184,0.211-0.451,0.333-0.732,0.333L37.191,195.795z M40.542,172.635l-2.271,21.221
				l9.983-0.002l-2.994-21.219H40.542z"/>
		</g>
		<g>
			<path style="opacity:0.8;fill:#84C0E9;" d="M155.392,145.229c3.102,5.573,8.701,10.564,7.834,17.494
				c-0.391,3.13-2.418,5.674-5.466,6.622c-1.055,0.328-2.086,0.494-3.098,0.538c-0.725-0.126-1.387-0.385-1.991-0.748
				c-1.791-1.835-3.215-4.199-3.585-6.26c-1.148-6.395,2.965-12.357,6.227-17.546C155.338,145.289,155.366,145.261,155.392,145.229z
				"/>
			<path style="opacity:0.8;fill:#00B1EB;" d="M155.551,150.124c2.41,4.329,6.759,8.207,6.086,13.589
				c-0.304,2.432-1.878,4.408-4.246,5.144c-0.82,0.254-1.621,0.384-2.406,0.419c-0.564-0.099-1.078-0.299-1.546-0.581
				c-1.391-1.425-2.497-3.263-2.785-4.862c-0.892-4.968,2.303-9.599,4.838-13.63C155.51,150.171,155.531,150.149,155.551,150.124z"
				/>
			<path style="opacity:0.8;fill:#D9DAEE;" d="M155.82,159.467c1.234,2.218,3.462,4.203,3.117,6.96
				c-0.155,1.246-0.962,2.258-2.174,2.636c-0.42,0.129-0.83,0.195-1.233,0.214c-0.288-0.05-0.551-0.153-0.792-0.297
				c-0.712-0.73-1.279-1.671-1.426-2.491c-0.457-2.544,1.18-4.917,2.478-6.981C155.799,159.491,155.81,159.479,155.82,159.467z"/>
		</g>
		<g>
			<g>
				<path style="opacity:0.8;fill:#84C0E9;" d="M102.634,149.054c3.102,5.573,8.701,10.564,7.834,17.494
					c-0.391,3.13-2.417,5.674-5.465,6.62c-1.056,0.329-2.086,0.496-3.098,0.54c-0.725-0.127-1.387-0.385-1.991-0.748
					c-1.791-1.835-3.215-4.199-3.584-6.26c-1.148-6.395,2.965-12.357,6.227-17.546C102.581,149.114,102.607,149.086,102.634,149.054
					z"/>
				<path style="opacity:0.8;fill:#00B1EB;" d="M102.793,153.949c2.409,4.329,6.759,8.207,6.085,13.589
					c-0.304,2.432-1.877,4.408-4.246,5.143c-0.82,0.254-1.621,0.384-2.406,0.419c-0.563-0.099-1.077-0.299-1.547-0.582
					c-1.39-1.426-2.497-3.263-2.784-4.863c-0.893-4.968,2.303-9.599,4.837-13.63C102.751,153.997,102.772,153.975,102.793,153.949z"
					/>
				<path style="opacity:0.8;fill:#D9DAEE;" d="M103.063,163.291c1.233,2.219,3.462,4.204,3.117,6.96
					c-0.156,1.246-0.962,2.258-2.175,2.635c-0.42,0.13-0.83,0.195-1.232,0.214c-0.289-0.05-0.552-0.154-0.792-0.297
					c-0.713-0.73-1.279-1.671-1.427-2.492c-0.457-2.544,1.18-4.916,2.478-6.981C103.041,163.315,103.052,163.304,103.063,163.291z"
					/>
			</g>
			<g>
				<path style="opacity:0.8;fill:#84C0E9;" d="M118.687,145.256c3.102,5.573,8.701,10.564,7.834,17.494
					c-0.392,3.131-2.417,5.675-5.466,6.621c-1.056,0.329-2.086,0.496-3.098,0.54c-0.725-0.127-1.388-0.385-1.991-0.749
					c-1.791-1.835-3.215-4.198-3.584-6.259c-1.148-6.395,2.965-12.357,6.227-17.546
					C118.633,145.317,118.661,145.289,118.687,145.256z"/>
				<path style="opacity:0.8;fill:#00B1EB;" d="M118.845,150.152c2.41,4.329,6.759,8.205,6.085,13.589
					c-0.304,2.431-1.877,4.407-4.246,5.144c-0.82,0.254-1.621,0.382-2.406,0.418c-0.564-0.099-1.078-0.299-1.547-0.581
					c-1.391-1.427-2.498-3.262-2.785-4.863c-0.892-4.967,2.303-9.599,4.837-13.629C118.804,150.199,118.825,150.177,118.845,150.152
					z"/>
				<path style="opacity:0.8;fill:#D9DAEE;" d="M119.115,159.495c1.234,2.217,3.461,4.203,3.117,6.96
					c-0.156,1.245-0.962,2.258-2.175,2.634c-0.42,0.13-0.83,0.196-1.232,0.215c-0.288-0.051-0.552-0.153-0.792-0.297
					c-0.712-0.731-1.279-1.671-1.426-2.491c-0.457-2.544,1.179-4.916,2.478-6.981C119.093,159.518,119.104,159.508,119.115,159.495z
					"/>
			</g>
			<g>
				<path style="opacity:0.8;fill:#84C0E9;" d="M134.739,144.613c3.102,5.572,8.701,10.564,7.835,17.494
					c-0.391,3.13-2.417,5.674-5.466,6.621c-1.055,0.329-2.087,0.494-3.098,0.539c-0.725-0.126-1.387-0.385-1.991-0.747
					c-1.79-1.835-3.215-4.199-3.585-6.261c-1.148-6.394,2.965-12.357,6.227-17.546C134.686,144.673,134.713,144.645,134.739,144.613
					z"/>
				<path style="opacity:0.8;fill:#00B1EB;" d="M134.898,149.508c2.41,4.329,6.759,8.206,6.086,13.589
					c-0.304,2.431-1.877,4.408-4.246,5.143c-0.82,0.254-1.621,0.383-2.407,0.419c-0.563-0.099-1.078-0.299-1.546-0.582
					c-1.391-1.426-2.498-3.263-2.785-4.863c-0.892-4.968,2.303-9.598,4.838-13.629C134.857,149.556,134.878,149.534,134.898,149.508
					z"/>
				<path style="opacity:0.8;fill:#D9DAEE;" d="M135.167,158.85c1.234,2.218,3.462,4.204,3.117,6.96
					c-0.156,1.246-0.962,2.258-2.175,2.636c-0.42,0.129-0.83,0.195-1.233,0.214c-0.288-0.051-0.551-0.153-0.791-0.297
					c-0.712-0.731-1.279-1.671-1.427-2.491c-0.456-2.544,1.18-4.917,2.478-6.981C135.145,158.875,135.157,158.863,135.167,158.85z"
					/>
			</g>
			<g>
				<path style="opacity:0.8;fill:#84C0E9;" d="M70.529,152.043c3.103,5.574,8.701,10.564,7.835,17.494
					c-0.391,3.131-2.418,5.674-5.466,6.622c-1.056,0.328-2.086,0.495-3.098,0.54c-0.725-0.127-1.387-0.386-1.991-0.749
					c-1.79-1.836-3.215-4.2-3.584-6.259c-1.148-6.396,2.964-12.358,6.227-17.547C70.476,152.105,70.504,152.076,70.529,152.043z"/>
				<path style="opacity:0.8;fill:#00B1EB;" d="M70.688,156.939c2.41,4.329,6.759,8.206,6.086,13.589
					c-0.304,2.433-1.878,4.408-4.246,5.144c-0.821,0.255-1.621,0.384-2.407,0.418c-0.563-0.098-1.078-0.298-1.546-0.581
					c-1.391-1.426-2.498-3.261-2.785-4.862c-0.892-4.967,2.303-9.6,4.837-13.63C70.646,156.986,70.668,156.965,70.688,156.939z"/>
				<path style="opacity:0.8;fill:#D9DAEE;" d="M70.958,166.283c1.234,2.216,3.462,4.202,3.117,6.96
					c-0.156,1.245-0.962,2.256-2.175,2.633c-0.42,0.131-0.83,0.197-1.233,0.214c-0.288-0.049-0.551-0.151-0.791-0.296
					c-0.712-0.73-1.279-1.672-1.427-2.491c-0.457-2.544,1.18-4.917,2.478-6.98C70.936,166.305,70.948,166.295,70.958,166.283z"/>
			</g>
			<g>
				<path style="opacity:0.8;fill:#84C0E9;" d="M86.388,150.964c3.102,5.573,8.701,10.564,7.834,17.494
					c-0.391,3.13-2.417,5.675-5.465,6.62c-1.056,0.329-2.086,0.496-3.098,0.54c-0.725-0.127-1.387-0.384-1.991-0.748
					c-1.791-1.835-3.214-4.198-3.585-6.26c-1.148-6.395,2.965-12.357,6.228-17.547C86.335,151.026,86.362,150.998,86.388,150.964z"
					/>
				<path style="opacity:0.8;fill:#00B1EB;" d="M86.547,155.861c2.41,4.329,6.759,8.205,6.085,13.588
					c-0.304,2.432-1.877,4.408-4.245,5.144c-0.821,0.255-1.621,0.384-2.406,0.42c-0.563-0.099-1.078-0.299-1.547-0.582
					c-1.391-1.426-2.498-3.262-2.785-4.863c-0.893-4.967,2.303-9.599,4.837-13.629C86.505,155.907,86.526,155.885,86.547,155.861z"
					/>
				<path style="opacity:0.8;fill:#D9DAEE;" d="M86.816,165.203c1.233,2.217,3.462,4.203,3.117,6.96
					c-0.156,1.245-0.962,2.257-2.174,2.634c-0.42,0.13-0.83,0.196-1.233,0.215c-0.289-0.051-0.551-0.154-0.792-0.298
					c-0.713-0.731-1.279-1.671-1.427-2.491c-0.457-2.544,1.18-4.916,2.479-6.981C86.795,165.226,86.806,165.216,86.816,165.203z"/>
			</g>
		</g>
		<g>
			<g>
				<path style="opacity:0.8;fill:#84C0E9;" d="M206.643,149.054c-3.102,5.573-8.701,10.564-7.835,17.494
					c0.391,3.13,2.418,5.674,5.466,6.62c1.056,0.329,2.086,0.496,3.098,0.54c0.725-0.127,1.387-0.385,1.991-0.748
					c1.791-1.835,3.215-4.199,3.585-6.26c1.148-6.395-2.965-12.357-6.227-17.546C206.696,149.114,206.669,149.086,206.643,149.054z"
					/>
				<path style="opacity:0.8;fill:#00B1EB;" d="M206.484,153.949c-2.41,4.329-6.759,8.207-6.085,13.589
					c0.304,2.432,1.877,4.408,4.246,5.143c0.82,0.254,1.621,0.384,2.406,0.419c0.563-0.099,1.078-0.299,1.547-0.582
					c1.391-1.426,2.498-3.263,2.785-4.863c0.892-4.968-2.303-9.599-4.837-13.63C206.525,153.997,206.504,153.975,206.484,153.949z"
					/>
				<path style="opacity:0.8;fill:#D9DAEE;" d="M206.214,163.291c-1.234,2.219-3.462,4.204-3.117,6.96
					c0.156,1.246,0.962,2.258,2.175,2.635c0.42,0.13,0.83,0.195,1.232,0.214c0.289-0.05,0.552-0.154,0.792-0.297
					c0.713-0.73,1.279-1.671,1.427-2.492c0.456-2.544-1.179-4.916-2.478-6.981C206.236,163.315,206.225,163.304,206.214,163.291z"/>
			</g>
			<g>
				<path style="opacity:0.8;fill:#84C0E9;" d="M190.59,145.256c-3.103,5.573-8.701,10.564-7.834,17.494
					c0.391,3.131,2.417,5.675,5.466,6.621c1.056,0.329,2.086,0.496,3.097,0.54c0.725-0.127,1.387-0.385,1.991-0.749
					c1.791-1.835,3.215-4.198,3.585-6.259c1.148-6.395-2.965-12.357-6.227-17.546C190.643,145.317,190.616,145.289,190.59,145.256z"
					/>
				<path style="opacity:0.8;fill:#00B1EB;" d="M190.431,150.152c-2.41,4.329-6.759,8.205-6.085,13.589
					c0.304,2.431,1.877,4.407,4.246,5.144c0.82,0.254,1.621,0.382,2.406,0.418c0.563-0.099,1.077-0.299,1.547-0.581
					c1.391-1.427,2.498-3.262,2.784-4.863c0.893-4.967-2.303-9.599-4.837-13.629C190.473,150.199,190.451,150.177,190.431,150.152z"
					/>
				<path style="opacity:0.8;fill:#D9DAEE;" d="M190.162,159.495c-1.234,2.217-3.462,4.203-3.117,6.96
					c0.156,1.245,0.962,2.258,2.174,2.634c0.421,0.13,0.831,0.196,1.233,0.215c0.289-0.051,0.552-0.153,0.792-0.297
					c0.713-0.731,1.279-1.671,1.427-2.491c0.457-2.544-1.18-4.916-2.478-6.981C190.183,159.518,190.172,159.508,190.162,159.495z"/>
			</g>
			<g>
				<path style="opacity:0.8;fill:#84C0E9;" d="M174.538,144.613c-3.102,5.572-8.701,10.564-7.834,17.494
					c0.391,3.13,2.417,5.674,5.466,6.621c1.055,0.329,2.086,0.494,3.098,0.539c0.725-0.126,1.387-0.385,1.991-0.747
					c1.791-1.835,3.215-4.199,3.585-6.261c1.148-6.394-2.965-12.357-6.227-17.546C174.591,144.673,174.564,144.645,174.538,144.613z
					"/>
				<path style="opacity:0.8;fill:#00B1EB;" d="M174.379,149.508c-2.41,4.329-6.759,8.206-6.085,13.589
					c0.304,2.431,1.877,4.408,4.246,5.143c0.82,0.254,1.621,0.383,2.406,0.419c0.564-0.099,1.078-0.299,1.547-0.582
					c1.391-1.426,2.498-3.263,2.785-4.863c0.892-4.968-2.303-9.598-4.837-13.629C174.42,149.556,174.399,149.534,174.379,149.508z"
					/>
				<path style="opacity:0.8;fill:#D9DAEE;" d="M174.109,158.85c-1.234,2.218-3.462,4.204-3.117,6.96
					c0.156,1.246,0.962,2.258,2.175,2.636c0.42,0.129,0.83,0.195,1.232,0.214c0.289-0.051,0.552-0.153,0.792-0.297
					c0.712-0.731,1.279-1.671,1.426-2.491c0.457-2.544-1.18-4.917-2.478-6.981C174.131,158.875,174.12,158.863,174.109,158.85z"/>
			</g>
			<g>
				<path style="opacity:0.8;fill:#84C0E9;" d="M238.747,152.043c-3.102,5.574-8.701,10.564-7.835,17.494
					c0.392,3.131,2.418,5.674,5.466,6.622c1.055,0.328,2.086,0.495,3.098,0.54c0.725-0.127,1.387-0.386,1.991-0.749
					c1.791-1.836,3.215-4.2,3.585-6.259c1.148-6.396-2.964-12.358-6.227-17.547C238.801,152.105,238.773,152.076,238.747,152.043z"
					/>
				<path style="opacity:0.8;fill:#00B1EB;" d="M238.588,156.939c-2.41,4.329-6.759,8.206-6.085,13.589
					c0.304,2.433,1.877,4.408,4.246,5.144c0.82,0.255,1.621,0.384,2.406,0.418c0.564-0.098,1.078-0.298,1.546-0.581
					c1.391-1.426,2.498-3.261,2.785-4.862c0.892-4.967-2.303-9.6-4.838-13.63C238.63,156.986,238.608,156.965,238.588,156.939z"/>
				<path style="opacity:0.8;fill:#D9DAEE;" d="M238.319,166.283c-1.233,2.216-3.461,4.202-3.117,6.96
					c0.155,1.245,0.962,2.256,2.174,2.633c0.42,0.131,0.83,0.197,1.233,0.214c0.289-0.049,0.551-0.151,0.792-0.296
					c0.712-0.73,1.279-1.672,1.426-2.491c0.457-2.544-1.18-4.917-2.478-6.98C238.34,166.305,238.329,166.295,238.319,166.283z"/>
			</g>
			<g>
				<path style="opacity:0.8;fill:#84C0E9;" d="M222.889,150.964c-3.103,5.573-8.701,10.564-7.834,17.494
					c0.391,3.13,2.417,5.675,5.466,6.62c1.056,0.329,2.087,0.496,3.098,0.54c0.725-0.127,1.387-0.384,1.991-0.748
					c1.791-1.835,3.215-4.198,3.585-6.26c1.148-6.395-2.965-12.357-6.227-17.547C222.942,151.026,222.915,150.998,222.889,150.964z"
					/>
				<path style="opacity:0.8;fill:#00B1EB;" d="M222.73,155.861c-2.41,4.329-6.759,8.205-6.085,13.588
					c0.304,2.432,1.877,4.408,4.245,5.144c0.821,0.255,1.621,0.384,2.407,0.42c0.563-0.099,1.078-0.299,1.546-0.582
					c1.391-1.426,2.498-3.262,2.785-4.863c0.892-4.967-2.304-9.599-4.837-13.629C222.771,155.907,222.75,155.885,222.73,155.861z"/>
				<path style="opacity:0.8;fill:#D9DAEE;" d="M222.46,165.203c-1.234,2.217-3.462,4.203-3.117,6.96
					c0.156,1.245,0.962,2.257,2.175,2.634c0.42,0.13,0.83,0.196,1.232,0.215c0.289-0.051,0.552-0.154,0.792-0.298
					c0.713-0.731,1.279-1.671,1.427-2.491c0.456-2.544-1.179-4.916-2.478-6.981C222.482,165.226,222.47,165.216,222.46,165.203z"/>
			</g>
		</g>
	</g>
	<g>
		<g>
			<g>
				<path style="opacity:0.8;fill:#84C0E9;" d="M58.54,161.381c-4.046,7.269-11.35,13.778-10.219,22.818
					c0.51,4.083,3.153,7.402,7.13,8.636c1.377,0.427,2.721,0.645,4.04,0.704c0.946-0.165,1.81-0.502,2.597-0.976
					c2.336-2.394,4.193-5.477,4.676-8.166c1.498-8.342-3.867-16.119-8.122-22.887C58.609,161.46,58.573,161.423,58.54,161.381z"/>
				<path style="opacity:0.8;fill:#00B1EB;" d="M58.333,167.766c-3.144,5.648-8.817,10.704-7.938,17.725
					c0.396,3.171,2.449,5.75,5.538,6.71c1.07,0.333,2.114,0.501,3.138,0.546c0.734-0.129,1.405-0.39,2.018-0.758
					c1.814-1.86,3.257-4.255,3.632-6.343c1.163-6.479-3.004-12.521-6.309-17.778C58.386,167.829,58.358,167.8,58.333,167.766z"/>
				<path style="opacity:0.8;fill:#D9DAEE;" d="M57.981,179.953c-1.61,2.892-4.516,5.481-4.066,9.079
					c0.203,1.625,1.254,2.945,2.836,3.436c0.548,0.17,1.083,0.257,1.607,0.28c0.377-0.066,0.72-0.2,1.034-0.388
					c0.929-0.953,1.668-2.179,1.86-3.248c0.596-3.319-1.539-6.414-3.232-9.107C58.008,179.984,57.994,179.97,57.981,179.953z"/>
			</g>
			<g>
				<path style="opacity:0.8;fill:#84C0E9;" d="M75.912,167.766c-4.046,7.269-11.349,13.779-10.219,22.819
					c0.51,4.082,3.153,7.401,7.13,8.635c1.376,0.428,2.721,0.646,4.039,0.704c0.946-0.165,1.81-0.502,2.598-0.975
					c2.335-2.395,4.193-5.479,4.675-8.165c1.498-8.342-3.867-16.119-8.122-22.888C75.981,167.846,75.946,167.81,75.912,167.766z"/>
				<path style="opacity:0.8;fill:#00B1EB;" d="M75.705,174.152c-3.143,5.646-8.816,10.704-7.938,17.725
					c0.396,3.171,2.449,5.75,5.538,6.708c1.07,0.331,2.113,0.501,3.139,0.547c0.734-0.128,1.405-0.39,2.018-0.757
					c1.814-1.86,3.256-4.255,3.632-6.344c1.163-6.479-3.004-12.52-6.31-17.778C75.759,174.214,75.731,174.186,75.705,174.152z"/>
				<path style="opacity:0.8;fill:#D9DAEE;" d="M75.354,186.338c-1.61,2.892-4.516,5.483-4.066,9.079
					c0.203,1.624,1.255,2.945,2.837,3.437c0.548,0.17,1.082,0.255,1.608,0.279c0.376-0.065,0.719-0.2,1.033-0.388
					c0.929-0.953,1.668-2.18,1.86-3.249c0.596-3.319-1.538-6.413-3.232-9.106C75.381,186.37,75.367,186.355,75.354,186.338z"/>
			</g>
			<g>
				<path style="opacity:0.8;fill:#84C0E9;" d="M95.336,171.428c-4.047,7.269-11.35,13.779-10.219,22.817
					c0.51,4.083,3.153,7.402,7.13,8.637c1.377,0.427,2.721,0.644,4.04,0.703c0.946-0.165,1.81-0.502,2.597-0.976
					c2.336-2.393,4.194-5.478,4.676-8.166c1.498-8.341-3.867-16.118-8.122-22.886C95.405,171.508,95.37,171.471,95.336,171.428z"/>
				<path style="opacity:0.8;fill:#00B1EB;" d="M95.129,177.814c-3.143,5.646-8.817,10.703-7.938,17.724
					c0.396,3.173,2.449,5.75,5.538,6.709c1.07,0.332,2.114,0.501,3.138,0.546c0.735-0.127,1.405-0.389,2.018-0.758
					c1.814-1.859,3.257-4.255,3.631-6.343c1.164-6.48-3.003-12.52-6.309-17.778C95.183,177.875,95.154,177.847,95.129,177.814z"/>
				<path style="opacity:0.8;fill:#D9DAEE;" d="M94.777,190c-1.61,2.891-4.516,5.482-4.066,9.079
					c0.203,1.624,1.254,2.944,2.836,3.437c0.548,0.17,1.083,0.255,1.607,0.278c0.378-0.066,0.72-0.199,1.034-0.388
					c0.929-0.952,1.668-2.179,1.86-3.248c0.596-3.319-1.538-6.413-3.232-9.107C94.805,190.03,94.79,190.017,94.777,190z"/>
			</g>
			<g>
				<path style="opacity:0.8;fill:#84C0E9;" d="M114.76,173.921c-4.046,7.268-11.35,13.778-10.219,22.817
					c0.51,4.083,3.153,7.402,7.13,8.636c1.376,0.427,2.721,0.645,4.04,0.704c0.946-0.165,1.81-0.502,2.597-0.976
					c2.335-2.394,4.193-5.477,4.676-8.165c1.497-8.342-3.867-16.119-8.122-22.887C114.829,174,114.794,173.963,114.76,173.921z"/>
				<path style="opacity:0.8;fill:#00B1EB;" d="M114.553,180.306c-3.144,5.648-8.817,10.704-7.938,17.726
					c0.396,3.171,2.449,5.75,5.538,6.71c1.07,0.332,2.113,0.5,3.138,0.545c0.734-0.128,1.405-0.39,2.018-0.758
					c1.814-1.86,3.257-4.255,3.632-6.343c1.163-6.479-3.004-12.521-6.309-17.778C114.606,180.368,114.579,180.34,114.553,180.306z"
					/>
				<path style="opacity:0.8;fill:#D9DAEE;" d="M114.201,192.492c-1.61,2.892-4.516,5.482-4.066,9.079
					c0.203,1.624,1.254,2.945,2.836,3.437c0.549,0.17,1.083,0.255,1.608,0.279c0.376-0.066,0.719-0.2,1.034-0.388
					c0.929-0.952,1.668-2.179,1.86-3.248c0.596-3.319-1.539-6.413-3.232-9.106C114.228,192.523,114.214,192.509,114.201,192.492z"/>
			</g>
			<g>
				<path style="opacity:0.8;fill:#84C0E9;" d="M134.183,173.921c-4.046,7.268-11.349,13.778-10.219,22.817
					c0.51,4.083,3.153,7.402,7.129,8.636c1.377,0.427,2.721,0.645,4.04,0.704c0.946-0.165,1.81-0.502,2.597-0.976
					c2.336-2.394,4.193-5.477,4.675-8.165c1.498-8.342-3.867-16.119-8.122-22.887C134.253,174,134.217,173.963,134.183,173.921z"/>
				<path style="opacity:0.8;fill:#00B1EB;" d="M133.976,180.306c-3.143,5.648-8.816,10.704-7.938,17.726
					c0.396,3.171,2.449,5.75,5.538,6.71c1.07,0.332,2.114,0.5,3.139,0.545c0.734-0.128,1.405-0.39,2.018-0.758
					c1.813-1.86,3.257-4.255,3.632-6.343c1.163-6.479-3.004-12.521-6.31-17.778C134.03,180.368,134.002,180.34,133.976,180.306z"/>
				<path style="opacity:0.8;fill:#D9DAEE;" d="M133.624,192.492c-1.61,2.892-4.516,5.482-4.066,9.079
					c0.203,1.624,1.255,2.945,2.837,3.437c0.548,0.17,1.083,0.255,1.607,0.279c0.377-0.066,0.72-0.2,1.034-0.388
					c0.929-0.952,1.668-2.179,1.86-3.248c0.596-3.319-1.538-6.413-3.232-9.106C133.652,192.523,133.638,192.509,133.624,192.492z"/>
			</g>
			<g>
				<path style="opacity:0.8;fill:#84C0E9;" d="M249.107,161.381c4.047,7.269,11.349,13.778,10.219,22.818
					c-0.51,4.083-3.154,7.402-7.13,8.636c-1.376,0.427-2.72,0.645-4.04,0.704c-0.946-0.165-1.81-0.502-2.597-0.976
					c-2.335-2.394-4.194-5.477-4.676-8.166c-1.497-8.342,3.867-16.119,8.122-22.887C249.038,161.46,249.073,161.423,249.107,161.381
					z"/>
				<path style="opacity:0.8;fill:#00B1EB;" d="M249.314,167.766c3.143,5.648,8.816,10.704,7.938,17.725
					c-0.396,3.171-2.449,5.75-5.538,6.71c-1.07,0.333-2.113,0.501-3.138,0.546c-0.735-0.129-1.405-0.39-2.018-0.758
					c-1.814-1.86-3.256-4.255-3.631-6.343c-1.164-6.479,3.003-12.521,6.309-17.778C249.261,167.829,249.289,167.8,249.314,167.766z"
					/>
				<path style="opacity:0.8;fill:#D9DAEE;" d="M249.666,179.953c1.611,2.892,4.515,5.481,4.066,9.079
					c-0.203,1.625-1.254,2.945-2.836,3.436c-0.549,0.17-1.083,0.257-1.608,0.28c-0.377-0.066-0.72-0.2-1.034-0.388
					c-0.929-0.953-1.668-2.179-1.86-3.248c-0.596-3.319,1.539-6.414,3.232-9.107C249.639,179.984,249.653,179.97,249.666,179.953z"
					/>
			</g>
			<g>
				<path style="opacity:0.8;fill:#84C0E9;" d="M231.734,167.766c4.047,7.269,11.35,13.779,10.219,22.819
					c-0.51,4.082-3.153,7.401-7.129,8.635c-1.377,0.428-2.721,0.646-4.04,0.704c-0.946-0.165-1.81-0.502-2.597-0.975
					c-2.336-2.395-4.193-5.479-4.676-8.165c-1.498-8.342,3.867-16.119,8.122-22.888C231.666,167.846,231.701,167.81,231.734,167.766
					z"/>
				<path style="opacity:0.8;fill:#00B1EB;" d="M231.942,174.152c3.143,5.646,8.816,10.704,7.938,17.725
					c-0.396,3.171-2.449,5.75-5.539,6.708c-1.069,0.331-2.113,0.501-3.138,0.547c-0.734-0.128-1.405-0.39-2.018-0.757
					c-1.813-1.86-3.257-4.255-3.632-6.344c-1.163-6.479,3.004-12.52,6.31-17.778C231.888,174.214,231.916,174.186,231.942,174.152z"
					/>
				<path style="opacity:0.8;fill:#D9DAEE;" d="M232.294,186.338c1.61,2.892,4.516,5.483,4.066,9.079
					c-0.204,1.624-1.255,2.945-2.836,3.437c-0.548,0.17-1.082,0.255-1.607,0.279c-0.377-0.065-0.72-0.2-1.034-0.388
					c-0.929-0.953-1.668-2.18-1.86-3.249c-0.596-3.319,1.539-6.413,3.232-9.106C232.266,186.37,232.28,186.355,232.294,186.338z"/>
			</g>
			<g>
				<path style="opacity:0.8;fill:#84C0E9;" d="M212.312,171.428c4.046,7.269,11.349,13.779,10.219,22.817
					c-0.51,4.083-3.153,7.402-7.13,8.637c-1.377,0.427-2.721,0.644-4.04,0.703c-0.946-0.165-1.81-0.502-2.597-0.976
					c-2.335-2.393-4.193-5.478-4.675-8.166c-1.498-8.341,3.867-16.118,8.122-22.886
					C212.242,171.508,212.277,171.471,212.312,171.428z"/>
				<path style="opacity:0.8;fill:#00B1EB;" d="M212.519,177.814c3.143,5.646,8.816,10.703,7.938,17.724
					c-0.396,3.173-2.449,5.75-5.538,6.709c-1.07,0.332-2.114,0.501-3.139,0.546c-0.734-0.127-1.405-0.389-2.018-0.758
					c-1.814-1.859-3.257-4.255-3.632-6.343c-1.164-6.48,3.004-12.52,6.31-17.778C212.465,177.875,212.492,177.847,212.519,177.814z"
					/>
				<path style="opacity:0.8;fill:#D9DAEE;" d="M212.87,190c1.61,2.891,4.516,5.482,4.066,9.079
					c-0.203,1.624-1.255,2.944-2.837,3.437c-0.549,0.17-1.083,0.255-1.608,0.278c-0.376-0.066-0.72-0.199-1.033-0.388
					c-0.929-0.952-1.668-2.179-1.86-3.248c-0.596-3.319,1.538-6.413,3.232-9.107C212.842,190.03,212.857,190.017,212.87,190z"/>
			</g>
			<g>
				<path style="opacity:0.8;fill:#84C0E9;" d="M192.887,173.921c4.046,7.268,11.349,13.778,10.219,22.817
					c-0.51,4.083-3.154,7.402-7.13,8.636c-1.376,0.427-2.72,0.645-4.04,0.704c-0.946-0.165-1.809-0.502-2.597-0.976
					c-2.335-2.394-4.193-5.477-4.675-8.165c-1.498-8.342,3.867-16.119,8.122-22.887C192.818,174,192.854,173.963,192.887,173.921z"
					/>
				<path style="opacity:0.8;fill:#00B1EB;" d="M193.095,180.306c3.143,5.648,8.816,10.704,7.938,17.726
					c-0.396,3.171-2.449,5.75-5.538,6.71c-1.07,0.332-2.113,0.5-3.138,0.545c-0.735-0.128-1.405-0.39-2.018-0.758
					c-1.814-1.86-3.256-4.255-3.631-6.343c-1.164-6.479,3.003-12.521,6.309-17.778C193.041,180.368,193.069,180.34,193.095,180.306z
					"/>
				<path style="opacity:0.8;fill:#D9DAEE;" d="M193.446,192.492c1.61,2.892,4.516,5.482,4.066,9.079
					c-0.203,1.624-1.254,2.945-2.836,3.437c-0.549,0.17-1.083,0.255-1.608,0.279c-0.377-0.066-0.72-0.2-1.034-0.388
					c-0.929-0.952-1.668-2.179-1.86-3.248c-0.596-3.319,1.538-6.413,3.232-9.106C193.419,192.523,193.433,192.509,193.446,192.492z"
					/>
			</g>
			<g>
				<path style="opacity:0.8;fill:#84C0E9;" d="M173.463,173.921c4.047,7.268,11.35,13.778,10.219,22.817
					c-0.51,4.083-3.153,7.402-7.129,8.636c-1.377,0.427-2.721,0.645-4.04,0.704c-0.946-0.165-1.81-0.502-2.597-0.976
					c-2.336-2.394-4.193-5.477-4.676-8.165c-1.498-8.342,3.867-16.119,8.122-22.887C173.395,174,173.43,173.963,173.463,173.921z"/>
				<path style="opacity:0.8;fill:#00B1EB;" d="M173.671,180.306c3.143,5.648,8.816,10.704,7.938,17.726
					c-0.396,3.171-2.449,5.75-5.538,6.71c-1.07,0.332-2.114,0.5-3.139,0.545c-0.734-0.128-1.405-0.39-2.017-0.758
					c-1.814-1.86-3.257-4.255-3.632-6.343c-1.164-6.479,3.004-12.521,6.309-17.778C173.617,180.368,173.645,180.34,173.671,180.306z
					"/>
				<path style="opacity:0.8;fill:#D9DAEE;" d="M174.023,192.492c1.61,2.892,4.516,5.482,4.066,9.079
					c-0.203,1.624-1.254,2.945-2.836,3.437c-0.548,0.17-1.083,0.255-1.607,0.279c-0.377-0.066-0.72-0.2-1.034-0.388
					c-0.929-0.952-1.668-2.179-1.86-3.248c-0.596-3.319,1.539-6.413,3.232-9.106C173.995,192.523,174.009,192.509,174.023,192.492z"
					/>
			</g>
			<g>
				<path style="opacity:0.8;fill:#84C0E9;" d="M153.406,173.921c-4.046,7.268-11.349,13.778-10.219,22.817
					c0.51,4.083,3.153,7.402,7.13,8.636c1.377,0.427,2.721,0.645,4.041,0.704c0.946-0.165,1.81-0.502,2.597-0.976
					c2.335-2.394,4.193-5.477,4.676-8.165c1.498-8.342-3.867-16.119-8.122-22.887C153.475,174,153.44,173.963,153.406,173.921z"/>
				<path style="opacity:0.8;fill:#00B1EB;" d="M153.199,180.306c-3.144,5.648-8.817,10.704-7.938,17.726
					c0.396,3.171,2.449,5.75,5.538,6.71c1.07,0.332,2.114,0.5,3.138,0.545c0.735-0.128,1.405-0.39,2.018-0.758
					c1.814-1.86,3.257-4.255,3.632-6.343c1.164-6.479-3.004-12.521-6.309-17.778C153.253,180.368,153.225,180.34,153.199,180.306z"
					/>
				<path style="opacity:0.8;fill:#D9DAEE;" d="M152.847,192.492c-1.61,2.892-4.516,5.482-4.066,9.079
					c0.203,1.624,1.254,2.945,2.836,3.437c0.549,0.17,1.083,0.255,1.608,0.279c0.376-0.066,0.72-0.2,1.034-0.388
					c0.929-0.952,1.668-2.179,1.86-3.248c0.596-3.319-1.539-6.413-3.232-9.106C152.874,192.523,152.86,192.509,152.847,192.492z"/>
			</g>
		</g>
		<g>
			<polygon style="fill:#DEDEDE;" points="160.509,184.194 157.365,184.194 151.169,184.194 148.025,184.194 143.213,211.838 
				148.286,211.838 160.248,211.838 165.319,211.838 			"/>
			<path style="fill:#5E2C00;" d="M165.319,212.809h-22.106c-0.286,0-0.558-0.127-0.742-0.346c-0.185-0.219-0.262-0.508-0.213-0.79
				l4.811-27.644c0.081-0.464,0.484-0.804,0.956-0.804h12.484c0.472,0,0.874,0.339,0.956,0.804l4.811,27.644
				c0.049,0.282-0.029,0.572-0.214,0.79C165.878,212.682,165.606,212.809,165.319,212.809z M144.367,210.868h19.799l-4.473-25.704
				H148.84L144.367,210.868z"/>
		</g>
	</g>
	<g>
		<g>
			<g>
				<g>
					<path style="fill:#BEBEBE;" d="M250.939,117.711c-1.458,0.229-2.106,3.827-1.445,8.035c0.66,4.21,2.379,7.436,3.835,7.212
						l19.636-3.08l-2.39-15.244L250.939,117.711z"/>
					<path style="fill:#5C2F10;" d="M252.563,134.216L252.563,134.216c-2.382-0.645-3.852-4.854-4.384-8.266
						c-0.697-4.444-0.181-9.126,2.554-9.556l19.637-3.079c0.349-0.053,0.704,0.03,0.991,0.24c0.284,0.208,0.477,0.521,0.53,0.872
						l2.389,15.245c0.115,0.724-0.383,1.406-1.108,1.522l-19.635,3.077C253.212,134.324,252.885,134.303,252.563,134.216z
						 M269.466,116.153l-18.319,2.875c-0.259,0.264-0.951,2.6-0.336,6.51c0.594,3.793,1.9,5.799,2.41,6.086l18.221-2.856
						L269.466,116.153z"/>
				</g>
				<g>
					<path style="fill:#F5A360;" d="M376.571,92.284l-3.184,0.497l-95.55,14.979l-3.183,0.497c-7.325,1.149-12.343,8-11.199,15.3
						c1.144,7.301,8.019,12.29,15.345,11.14l3.182-0.497l95.552-14.98l3.177-0.497c7.331-1.148,12.349-7.998,11.197-15.303
						C390.771,96.121,383.897,91.135,376.571,92.284z"/>
					<path style="fill:#5C2F10;" d="M272.858,135.684L272.858,135.684c-5.617-1.518-9.822-6.196-10.718-11.92
						c-1.256-8.017,4.267-15.562,12.31-16.822l101.915-15.976c2.072-0.323,4.14-0.212,6.149,0.331
						c5.613,1.517,9.821,6.195,10.713,11.917c0.61,3.885-0.333,7.774-2.66,10.955c-2.327,3.174-5.753,5.26-9.649,5.872
						l-101.913,15.974C276.936,136.337,274.865,136.227,272.858,135.684z M381.818,93.868c-1.645-0.444-3.342-0.533-5.04-0.268
						l-101.915,15.974c-6.592,1.034-11.12,7.214-10.092,13.777c0.733,4.685,4.18,8.52,8.781,9.763
						c1.645,0.444,3.342,0.532,5.042,0.264l101.912-15.971c3.195-0.499,6.006-2.208,7.909-4.811c1.907-2.605,2.677-5.788,2.18-8.967
						C389.862,98.941,386.418,95.111,381.818,93.868z"/>
				</g>
				<g>
					<path style="fill:#F5A360;" d="M376.571,92.284l-3.184,0.497l-95.55,14.979l-3.183,0.497c-7.325,1.149-12.343,8-11.199,15.3
						c1.144,7.301,8.019,12.29,15.345,11.14l3.182-0.497l95.552-14.98l3.177-0.497c7.331-1.148,12.349-7.998,11.197-15.303
						C390.771,96.121,383.897,91.135,376.571,92.284z"/>
					<path style="fill:#5C2F10;" d="M272.858,135.684L272.858,135.684c-5.617-1.518-9.822-6.196-10.718-11.92
						c-1.256-8.017,4.267-15.562,12.31-16.822l101.915-15.976c2.072-0.323,4.14-0.212,6.149,0.331
						c5.613,1.517,9.821,6.195,10.713,11.917c0.61,3.885-0.333,7.774-2.66,10.955c-2.327,3.174-5.753,5.26-9.649,5.872
						l-101.913,15.974C276.936,136.337,274.865,136.227,272.858,135.684z M381.818,93.868c-1.645-0.444-3.342-0.533-5.04-0.268
						l-101.915,15.974c-6.592,1.034-11.12,7.214-10.092,13.777c0.733,4.685,4.18,8.52,8.781,9.763
						c1.645,0.444,3.342,0.532,5.042,0.264l101.912-15.971c3.195-0.499,6.006-2.208,7.909-4.811c1.907-2.605,2.677-5.788,2.18-8.967
						C389.862,98.941,386.418,95.111,381.818,93.868z"/>
				</g>
				<path style="fill:#F5A360;" d="M344.51,98.756l-2.117,0.33l-63.512,9.955l-2.116,0.333c-4.867,0.762-8.208,5.316-7.445,10.169
					c0.761,4.854,5.33,8.169,10.202,7.405l2.114-0.333l63.512-9.954l2.118-0.33c4.868-0.765,8.203-5.316,7.438-10.171
					C353.949,101.307,349.378,97.99,344.51,98.756z"/>
				<g>
					<path style="fill:#BEBEBE;" d="M283.326,110.26c0.204,1.28-1.771,2.652-4.407,3.064c-2.628,0.414-4.925-0.293-5.128-1.571
						c-0.199-1.282,1.774-2.652,4.405-3.067C280.83,108.276,283.128,108.978,283.326,110.26z"/>
					<path style="fill:#5C2F10;" d="M275.261,114.507c-1.581-0.427-2.597-1.353-2.787-2.543c-0.327-2.106,1.991-4.038,5.515-4.593
						c1.377-0.216,2.753-0.167,3.871,0.135c1.583,0.428,2.598,1.358,2.785,2.55c0.327,2.107-1.994,4.035-5.518,4.586
						C277.753,114.856,276.378,114.808,275.261,114.507z M275.122,111.59c0.061,0.016,0.304,0.202,0.833,0.344
						c0.765,0.207,1.745,0.233,2.758,0.074c2.145-0.337,3.228-1.27,3.297-1.587c-0.005,0.049-0.263-0.187-0.844-0.344
						c-0.765-0.207-1.747-0.234-2.765-0.075c-2.144,0.339-3.226,1.275-3.291,1.591C275.109,111.589,275.113,111.587,275.122,111.59z
						"/>
				</g>
				<g>
					<path style="fill:#BEBEBE;" d="M296.703,108.162c0.205,1.283-1.773,2.652-4.403,3.063c-2.632,0.415-4.932-0.291-5.128-1.569
						c-0.201-1.281,1.773-2.655,4.404-3.065C294.208,106.178,296.504,106.879,296.703,108.162z"/>
					<path style="fill:#5C2F10;" d="M288.635,112.409c-1.582-0.427-2.598-1.356-2.779-2.547c-0.333-2.105,1.988-4.034,5.512-4.588
						c1.378-0.214,2.751-0.169,3.871,0.134c1.581,0.427,2.596,1.358,2.781,2.548c0.111,0.705-0.079,1.423-0.554,2.075
						c-0.892,1.228-2.747,2.165-4.96,2.512C291.129,112.758,289.754,112.711,288.635,112.409z M288.501,109.495
						c0.058,0.016,0.301,0.198,0.829,0.34c0.769,0.209,1.747,0.233,2.761,0.074c2.143-0.333,3.226-1.267,3.297-1.582
						c-0.036,0.029-0.264-0.188-0.845-0.345c-0.765-0.207-1.744-0.232-2.76-0.074c-2.145,0.335-3.224,1.272-3.294,1.588
						C288.488,109.496,288.495,109.493,288.501,109.495z"/>
				</g>
			</g>
			<g>
				<path style="fill:#BEBEBE;" d="M260.384,117.076l-14.306,0.097c-16.823-13.288-50.403-22.222-89.03-21.967
					c-38.626,0.256-72.033,9.63-88.599,23.14l-13.905,2.591l3.289,20.803h0.009c5.037,21.211,47.955,37.546,100.006,37.205
					c52.586-0.349,95.506-17.59,99.393-39.168L260.384,117.076z"/>
				<path style="fill:#5C2F10;" d="M145.685,179.83l-0.008-0.001c-46.85-2.054-84.293-17.928-89.126-37.766
					c-0.018-0.058-0.035-0.118-0.044-0.18l-3.293-20.802c-0.088-0.57,0.36-1.103,1.037-1.229l13.533-2.524
					c17.521-14.087,51.667-22.983,89.253-23.235c4.07-0.025,8.166,0.05,12.182,0.227c32.784,1.434,61.65,9.552,77.393,21.738
					l13.763-0.089c0.411,0,0.755,0.13,1.009,0.366c0.256,0.236,0.378,0.554,0.336,0.869l-3.141,22.7
					c-4.063,22.554-47.361,39.799-100.714,40.149C153.792,180.081,149.693,180.005,145.685,179.83z M59.149,141.485
					c0.006,0.012,0.006,0.027,0.011,0.039c4.486,18.904,40.933,34.082,86.658,36.086h0.009c3.956,0.174,7.998,0.246,12.013,0.222
					c51.197-0.337,94.276-17.125,98.076-38.22l2.963-21.412l-12.789,0.083c-0.34,0.007-0.684-0.107-0.937-0.307
					c-15.197-12.002-43.637-20.02-76.079-21.439c-3.958-0.173-8.003-0.246-12.015-0.219c-37.117,0.245-70.709,8.988-87.669,22.82
					c-0.18,0.144-0.402,0.244-0.645,0.291l-12.712,2.369L59.149,141.485z"/>
			</g>
			<path style="fill:#BEBEBE;" d="M246.079,117.172c-16.823-13.288-50.403-22.222-89.03-21.967
				c-38.626,0.256-72.033,9.63-88.599,23.14l-12.248,2.281c10.465,33.232,61.848,44.831,98.991,44.774
				c8.984-0.016,16.827-1.029,25.541-2.435c3.478-0.561,8.005,10.512,2.235,14.47c40.564-4.664,71.025-19.646,74.272-37.66
				l3.142-22.7L246.079,117.172z"/>
			<g>
				<path style="fill:#BEBEBE;" d="M260.376,116.189c0.228,23.816-45.752,43.431-102.705,43.808
					c-56.95,0.373-103.305-18.63-103.537-42.448C53.909,93.73,99.892,74.117,156.843,73.742
					C213.794,73.366,260.144,92.369,260.376,116.189z"/>
				<path style="fill:#5C2F10;" d="M145.132,160.876c-52.424-2.296-92.121-20.919-92.339-43.318
					c-0.23-24.392,46.441-44.546,104.04-44.925c4.192-0.028,8.414,0.048,12.547,0.229c52.425,2.296,92.118,20.92,92.336,43.318
					c0.233,24.394-46.434,44.546-104.033,44.927C153.49,161.133,149.268,161.057,145.132,160.876z M169.24,75.082
					c-4.082-0.18-8.248-0.256-12.386-0.227c-56.119,0.369-101.598,19.517-101.378,42.685c0.207,21.207,38.81,38.884,89.796,41.117
					c4.083,0.179,8.251,0.255,12.387,0.228c56.123-0.369,101.595-19.521,101.374-42.687
					C258.828,94.989,220.227,77.313,169.24,75.082z"/>
			</g>
			<path style="fill:#BEBEBE;" d="M255.271,129.786c-0.287-5.129-2.174-10.143-6.134-14.343
				c-14.18-15.053-40.591-21.553-62.582-23.619c-24.201-2.275-48.691-0.479-72.46,3.688c-6.375,1.117-14.997,2.888-19.986-1.926
				c-2.629-2.538-3.978-5.563-5.302-8.625c-21.363,8.044-34.795,19.696-34.672,32.587c0.232,23.818,46.587,42.821,103.537,42.448
				C203.287,159.693,241.839,147.047,255.271,129.786z"/>
			<g>
				<g>
					<path style="fill:#BEBEBE;" d="M157.049,95.206c-50.54,0.333-91.342,17.738-91.137,38.872c0.009,1.22,0.168,2.421,0.451,3.605
						c17.46,13.517,51.833,22.572,91.309,22.313c39.478-0.263,73.669-9.77,90.868-23.512c0.257-1.189,0.398-2.395,0.385-3.614
						C248.721,111.737,207.583,94.872,157.049,95.206z"/>
					<path style="fill:#5C2F10;" d="M145.139,160.876c-0.001,0-0.001,0-0.001,0c-33.704-1.477-63.494-9.843-79.69-22.379
						c-0.207-0.161-0.346-0.369-0.401-0.598c-0.307-1.293-0.465-2.577-0.476-3.812c-0.104-10.663,9.581-20.689,27.265-28.233
						c17.396-7.419,40.553-11.597,65.2-11.761c3.726-0.022,7.475,0.045,11.149,0.206c46.6,2.042,81.89,18.62,82.079,38.563
						c0.012,1.231-0.122,2.516-0.404,3.82c-0.049,0.231-0.188,0.439-0.39,0.604c-18.073,14.439-53.243,23.566-91.787,23.822
						C153.493,161.133,149.271,161.058,145.139,160.876z M67.601,137.12c15.82,12.053,44.809,20.097,77.675,21.537
						c0,0,0.001-0.001,0.004,0c4.08,0.178,8.246,0.254,12.38,0.227c37.659-0.248,71.939-9.035,89.632-22.949
						c0.206-1.054,0.3-2.056,0.289-3.055c-0.179-18.752-34.376-34.384-79.536-36.362c-3.622-0.159-7.318-0.227-10.986-0.201
						c-24.236,0.159-46.964,4.246-63.994,11.513c-16.743,7.141-25.907,16.46-25.813,26.239
						C67.259,135.059,67.375,136.082,67.601,137.12z"/>
				</g>
			</g>
			<path style="fill:#FFFFFF;" d="M62.984,146.886c0,0,18.576,31.364,102.871,29.964C165.855,176.85,98.511,179.112,62.984,146.886z
				"/>
			<path style="fill:#FFFFFF;" d="M142.64,75.893c0,0,61.914-3.293,93.087,15.238c0,0,20.611,8.352,20.47,26.149
				c0,0-2.967-21.603-40.368-31.851C172.032,73.426,142.64,75.893,142.64,75.893z"/>
		</g>
	</g>
	<g>
		<path style="fill:#BEBEBE;" d="M146.12,96.259c0,0-36.143,4.606-44.748,19.165c-8.606,14.554-1.822,34.346,37.597,36.497
			c39.419,2.151,70.453-15.167,66.957-36.497C201.622,89.154,146.12,96.259,146.12,96.259z"/>
		<g>
			<g>
				<g>
					<g>
						<g>
							<g>
								<path style="fill:#EFD2AB;" d="M113.161,49.267c-1.43-2.664-2.35-9.404-1.785-9.27c2.887,0.685,5.537,1.979,8.289,3.03
									c-0.323-1.552-1.015-5.738-0.544-5.677c2.495,0.315,4.385,0.908,5.76,1.044c-0.375-1.834-2.308-7.63-1.717-7.527
									c2.429,0.422,4.711,1.351,7.122,1.8c-0.262-2.47-1.218-5.979-0.223-8.254c0.225-0.515,6.636-0.515,9.107,0.76
									c-0.294-1.414-1.13-5.595-0.384-5.48c2.844,0.435,5.499,1.459,8.23,2.272c-1.53-2.954-3.302-5.647-5.231-7.859
									c-9.762-11.196-25.93-13.074-36.112-4.196c-10.181,8.882-10.52,25.155-0.758,36.351c0.589,0.676,1.229,1.346,1.908,2.002
									C107.029,48.095,111.278,49.132,113.161,49.267z"/>
								<path style="fill:#5C2F10;" d="M113.161,50.128c-0.021,0-0.041-0.003-0.061-0.005c-1.016-0.071-2.596-0.377-3.99-0.644
									c-0.81-0.155-1.805-0.347-2.123-0.37c-0.275,0.053-0.556-0.026-0.765-0.229c-0.706-0.682-1.365-1.374-1.958-2.054
									c-10.059-11.538-9.683-28.388,0.84-37.565c4.365-3.802,9.838-5.814,15.833-5.814c8.067,0,15.902,3.681,21.494,10.093
									c1.905,2.184,3.669,4.821,5.247,7.84c0.143,0.154,0.228,0.361,0.228,0.584c0,0.481-0.447,0.824-0.876,0.862
									c-0.092,0-0.175-0.011-0.264-0.038c-0.724-0.216-1.449-0.447-2.168-0.679c-1.784-0.571-3.483-1.117-5.256-1.448
									c0.018,0.57,0.139,1.749,0.622,4.111c0.061,0.121,0.096,0.254,0.096,0.4c0,0.477-0.383,0.86-0.86,0.86
									c0,0-0.02,0.003-0.032,0c-0.137,0-0.271-0.029-0.396-0.094c-1.313-0.679-4.154-0.989-6.239-0.989
									c-0.944,0-1.514,0.062-1.797,0.109c-0.504,1.515-0.164,3.684,0.137,5.613c0.091,0.582,0.179,1.142,0.24,1.662
									c0.042,0.102,0.065,0.216,0.065,0.333c0,0.476-0.385,0.86-0.86,0.86c-0.009,0-0.022,0.002-0.034,0
									c-0.052,0-0.104-0.005-0.156-0.015c-1.215-0.225-2.398-0.568-3.541-0.902c-0.869-0.252-1.702-0.494-2.545-0.687
									c0.213,0.944,0.632,2.418,0.914,3.415c0.291,1.028,0.567,1.998,0.716,2.643c0.065,0.126,0.103,0.264,0.103,0.413
									c0,0.475-0.386,0.86-0.862,0.86c-0.007,0.002-0.018,0-0.034,0c-0.028,0-0.055-0.001-0.082-0.005
									c-0.683-0.067-1.448-0.229-2.336-0.421c-0.788-0.169-1.66-0.355-2.632-0.508c0.064,1.003,0.345,2.885,0.631,4.308
									c0.062,0.12,0.099,0.254,0.099,0.399c0,0.478-0.386,0.861-0.861,0.861c-0.008,0-0.021,0.003-0.034,0
									c-0.104,0-0.209-0.017-0.307-0.057c-0.792-0.303-1.575-0.625-2.359-0.949c-1.668-0.684-3.257-1.339-4.921-1.812
									c0.1,1.678,0.749,5.589,1.751,7.612c0.142,0.154,0.227,0.357,0.227,0.583c0,0.474-0.384,0.861-0.862,0.861
									C113.193,50.128,113.177,50.128,113.161,50.128z M107.165,47.398c0.427,0.039,1.128,0.171,2.272,0.389
									c0.744,0.146,1.594,0.309,2.354,0.434c-1.018-2.935-1.781-7.711-1.239-8.619c0.19-0.316,0.666-0.53,1.024-0.442
									c2.128,0.506,4.138,1.333,6.079,2.134c0.288,0.118,0.577,0.237,0.864,0.354c-0.377-2.109-0.605-4.234-0.138-4.809
									c0.164-0.203,0.47-0.351,0.729-0.351c1.502,0.184,2.678,0.434,3.714,0.656c0.321,0.071,0.622,0.136,0.907,0.192
									c-0.127-0.464-0.277-0.989-0.429-1.528c-1.188-4.18-1.306-4.889-0.895-5.435c0.162-0.214,0.471-0.37,0.742-0.37
									c1.457,0.239,2.707,0.603,3.919,0.955c0.751,0.217,1.475,0.428,2.201,0.605c-0.029-0.205-0.064-0.412-0.097-0.628
									c-0.357-2.292-0.762-4.893,0.102-6.868c0.199-0.46,0.583-0.841,3.259-0.841c1.633,0,3.803,0.172,5.5,0.621
									c-0.652-3.533-0.413-4.224-0.078-4.636c0.163-0.201,0.542-0.385,0.801-0.385c2.32,0.343,4.377,1.006,6.369,1.645
									c0.038,0.008,0.075,0.023,0.114,0.034c-1.27-2.207-2.645-4.163-4.105-5.837c-5.266-6.038-12.626-9.503-20.196-9.503
									c-5.575,0-10.659,1.866-14.701,5.392c-9.808,8.556-10.111,24.315-0.675,35.133C106.052,46.258,106.59,46.829,107.165,47.398
									z"/>
							</g>
							<path style="fill:#EFD2AB;" d="M107.802,11.901c13.073-4.566,21.825,3.529,29.295,12.616
								c0.805,0.165,1.533,0.379,2.072,0.656c-0.294-1.414-1.13-5.595-0.384-5.48c2.844,0.435,5.499,1.459,8.23,2.272
								c-1.53-2.954-3.302-5.647-5.231-7.859c-9.762-11.196-25.93-13.074-36.112-4.196c-3.162,2.759-5.371,6.231-6.628,10.043
								C100.9,16.313,103.698,13.334,107.802,11.901z"/>
						</g>
						<path style="fill:#EFD2AB;" d="M102.291,17.645c0,0-8.066,10.973,3.766,26.677l3.981,1.076
							C110.039,45.398,98.207,33.458,102.291,17.645z"/>
					</g>
					<g>
						<g>
							<g>
								<path style="fill:#EFD2AB;" d="M151.184,29.914c1.321-0.92,5.585-2.171,5.571-1.432c-0.026,1.436-0.304,8.171-0.02,8.078
									c2.093-0.699,5.985-1.592,8.118-2.181c0.474-0.134,1.237,5.466,1.324,7.849c1.631-0.805,6.086-2.351,6.209-1.785
									c0.271,1.25,0.385,2.533,0.718,3.768c1.492-0.953,2.949-1.898,4.618-2.554c0.637-0.252,0.583,6.881,0.519,9.904
									c2.532-1.102,7.917-5.628,8.076-4.945c0.392,1.691,0.721,3.397,0.825,5.116c5.628-12.973,6.272-31.698-3.481-38.122
									c-8.506-5.601-22.485-0.241-32.351,8.052C151.374,24.422,151.057,27.162,151.184,29.914z"/>
								<path style="fill:#5C2F10;" d="M187.142,52.594c-0.047,0-0.099-0.003-0.149-0.014c-0.392-0.068-0.687-0.396-0.709-0.795
									c-0.085-1.421-0.342-2.846-0.6-4.058c-0.566,0.373-1.455,0.999-2.217,1.537c-1.682,1.184-3.584,2.525-4.882,3.088
									c-0.268,0.116-0.583,0.087-0.822-0.076c-0.244-0.161-0.389-0.439-0.382-0.733c0.093-4.371,0.006-7.419-0.148-8.737
									c-1.215,0.566-2.337,1.286-3.515,2.038l-0.149,0.094c-0.234,0.147-0.519,0.176-0.775,0.078
									c-0.254-0.097-0.449-0.313-0.518-0.578c-0.208-0.76-0.333-1.531-0.453-2.275c-0.051-0.31-0.102-0.617-0.159-0.928
									c-1.212,0.222-3.865,1.153-5.105,1.769c-0.264,0.128-0.572,0.118-0.821-0.032c-0.252-0.149-0.41-0.414-0.421-0.708
									c-0.072-1.993-0.554-5.526-0.906-6.874c-0.623,0.164-1.332,0.345-2.077,0.535c-1.872,0.475-3.995,1.01-5.326,1.454
									c-0.308,0.103-0.686,0.011-0.91-0.225c-0.344-0.354-0.448-0.462-0.243-7.253c0.008-0.271,0.018-0.519,0.025-0.737
									c-1.257,0.172-3.426,0.919-4.2,1.457c-0.26,0.18-0.596,0.203-0.874,0.066c-0.283-0.138-0.466-0.419-0.48-0.733
									c-0.069-1.519-0.008-3.041,0.052-4.513c0.05-1.234,0.1-2.509,0.072-3.757c-0.006-0.262,0.108-0.512,0.307-0.68
									c7.746-6.51,17.139-10.554,24.51-10.554c3.419,0,6.405,0.824,8.868,2.446c9.992,6.579,9.751,25.461,3.799,39.182
									C187.792,52.396,187.48,52.594,187.142,52.594z M177.753,40.791c0.231,0,0.525,0.13,0.688,0.295
									c0.284,0.291,0.802,0.819,0.686,9.026c1.019-0.618,2.235-1.474,3.347-2.256c2.459-1.73,3.147-2.168,3.737-2.168
									c0.401,0,0.852,0.346,0.944,0.734c0.131,0.565,0.273,1.205,0.401,1.887c4.458-12.733,3.901-28.532-4.37-33.977
									c-2.178-1.435-4.843-2.162-7.92-2.162c-6.887,0-15.7,3.782-23.088,9.891c0.012,1.162-0.037,2.322-0.082,3.447
									c-0.04,0.988-0.08,2.001-0.08,3.006c1.398-0.6,3.255-1.114,4.238-1.114c0.176,0,0.709,0,1.069,0.367
									c0.161,0.164,0.295,0.502,0.292,0.734c-0.005,0.294-0.023,0.813-0.039,1.452c-0.041,1.333-0.126,4.052-0.105,5.477
									c1.31-0.385,2.953-0.801,4.438-1.178c1.02-0.256,1.974-0.497,2.715-0.704c0.074-0.019,0.168-0.034,0.245-0.034
									c1.436,0,1.939,4.973,2.102,7.427c1.666-0.675,4.085-1.48,5.096-1.48c0.916,0,1.118,0.612,1.16,0.802
									c0.117,0.537,0.205,1.079,0.294,1.623c0.051,0.32,0.104,0.637,0.159,0.942c1.165-0.731,2.381-1.441,3.728-1.972
									C177.506,40.817,177.646,40.791,177.753,40.791z"/>
							</g>
							<path style="fill:#EFD2AB;" d="M183.66,13.612c-8.272-5.445-21.709-0.517-31.519,7.381
								c9.612-4.537,23.219-9.418,30.489,1.063c5.791,8.351,4.308,18.182,0.079,26.686c1.881-1.323,3.523-2.498,3.607-2.125
								c0.392,1.691,0.721,3.397,0.825,5.116C192.77,38.761,193.414,20.035,183.66,13.612z"/>
						</g>
						<path style="fill:#EFD2AB;" d="M153.816,23.012c0,0,11.833-9.575,22.913-3.872c0,0-14.523-1.291-21.622,7.099L153.816,23.012z
							"/>
					</g>
				</g>
			</g>
			<g>
				<g>
					<g>
						<path style="fill:#D0CEBC;" d="M145.626,90.504c0,0-36.141,4.605-44.747,19.164c-8.605,14.556-1.822,34.347,37.598,36.499
							c39.419,2.15,70.449-15.168,66.956-36.499C201.13,83.398,145.626,90.504,145.626,90.504z"/>
						<path style="fill:#5C2F10;" d="M145.083,147.638h-0.007c-2.204,0-4.448-0.06-6.669-0.18
							c-26.048-1.422-36.024-10.149-39.804-17.218c-3.438-6.423-3.013-14.16,1.166-21.231c8.825-14.927,44.195-19.593,45.695-19.786
							c0.07-0.006,7.025-0.884,16.069-0.884c34.479,0,43.595,11.485,45.173,21.121c1.074,6.559-0.924,13.049-5.779,18.765
							C190.754,140.199,169.354,147.638,145.083,147.638z M161.533,90.922c-8.87,0-15.675,0.854-15.744,0.863
							c-0.354,0.046-35.613,4.694-43.799,18.538c-3.708,6.274-4.115,13.09-1.112,18.7c4.903,9.166,18.282,14.796,37.669,15.855
							c2.176,0.118,4.373,0.178,6.529,0.178h0.007c23.537,0,44.18-7.089,53.876-18.504c4.352-5.12,6.148-10.888,5.2-16.677
							C201.458,93.381,176.292,90.922,161.533,90.922z"/>
					</g>
					<path style="fill:#E9E9E9;" d="M205.433,109.668c-4.303-26.269-59.807-19.164-59.807-19.164s-25.976,3.314-39.125,13.193
						c0.347-0.147,0.688-0.294,1.012-0.439c10.585-4.693,22.062-6.899,33.501-8.251c15.984-1.889,42.685-3.595,52.565,12.604
						c3.65,5.987,1.521,15.446-3.458,20.025c-7.808,7.187-17.817,12.202-27.779,15.683c-2.35,0.82-4.869,1.711-7.504,2.605
						C186.081,143.253,208.427,127.938,205.433,109.668z"/>
					<g>
						<path style="fill:#F7A512;" d="M176.772,107.297c0.837,8.873-9.735,17.127-23.616,18.438
							c-13.879,1.311-25.809-4.822-26.647-13.696c-0.837-8.874,9.735-17.13,23.616-18.439
							C164.004,92.29,175.934,98.422,176.772,107.297z"/>
						<path style="fill:#5C2F10;" d="M149.438,127.203c-13.206,0-23.39-6.327-24.214-15.041
							c-0.903-9.57,10.211-18.473,24.779-19.848c1.278-0.122,2.57-0.184,3.838-0.184c13.208,0,23.391,6.326,24.215,15.043
							c0.903,9.571-10.213,18.472-24.779,19.847C151.999,127.141,150.705,127.203,149.438,127.203z M153.841,94.713
							c-1.185,0-2.396,0.057-3.596,0.17c-13.148,1.241-23.219,8.883-22.452,17.035c0.685,7.244,9.99,12.703,21.645,12.703
							c1.187,0,2.398-0.057,3.598-0.169c13.148-1.243,23.219-8.881,22.451-17.034C174.801,100.176,165.497,94.713,153.841,94.713z"
							/>
					</g>
					<path style="fill:#F7A512;" d="M176.772,107.297c-0.334-3.512-2.419-6.583-5.658-8.945c3.57,6.765,0.566,14.007-12.35,19.425
						c-7.814,3.275-22.632,4.614-29.529-2.872c-1.555-1.687-2.367-3.408-2.665-5.123c-0.092,0.746-0.131,1.5-0.061,2.258
						c0.838,8.874,12.768,15.007,26.647,13.696C167.037,124.425,177.609,116.17,176.772,107.297z"/>
					<path style="fill:#F7A512;" d="M151.627,104.446c0.237,2.513-2.756,4.849-6.683,5.219c-3.93,0.371-7.307-1.366-7.545-3.876
						c-0.236-2.51,2.755-4.849,6.686-5.219C148.011,100.199,151.389,101.933,151.627,104.446z"/>
					<path style="fill:#F7A512;" d="M140.78,114.007c0.116,1.199-1.314,2.313-3.189,2.491c-1.875,0.176-3.486-0.652-3.599-1.851
						c-0.113-1.197,1.313-2.314,3.19-2.489C139.057,111.979,140.667,112.808,140.78,114.007z"/>
				</g>
				<path style="fill:#FFFFFF;" d="M121.146,135.52c-3.696-4.131-8.849-5.866-11.798-10.94c-4.026-6.932-2.196-13.559,2.771-19.507
					c0.268-0.323,0.703-1.513-0.19-1.12c-18.555,8.18-10.815,34.425,7.231,34.391C120.104,138.342,121.988,136.46,121.146,135.52z"
					/>
				<path style="fill:#FFFFFF;" d="M127.65,136.389c-0.099-0.196-0.244-0.349-0.437-0.458c-0.736-0.578-1.874,0.517-2.372,1.099
					c-0.36,0.26-0.699,0.734-0.767,1.201c-0.336,0.72-0.486,1.527,0.293,1.749c0.218,0.089,0.446,0.125,0.687,0.104
					c0.002-0.007,0.006-0.015,0.008-0.021C126.264,140.33,128.507,137.597,127.65,136.389z"/>
				<path style="fill:#FFFFFF;" d="M190.51,106.802c3.925,6.106,3.794,10.913,1.043,16.941c4.111-4.009,6.675-9.302,3.226-15.145
					c-2.225-3.766-5.499-5.831-9.105-7.62C187.347,102.803,189.063,104.557,190.51,106.802z"/>
			</g>
		</g>
	</g>
</g>
</svg>
