<svg width="1920" height="1080" viewBox="0 0 1920 1080" fill="none" xmlns="http://www.w3.org/2000/svg">
<path d="M1252.68 268.92C1252.98 156.67 1162.22 65.4201 1049.97 65.1301C937.72 64.8301 846.48 155.59 846.18 267.84C846.04 321.29 866.57 369.94 900.2 406.31H900.18L900.32 406.44C907.23 413.9 1048.69 544.3 1048.69 544.3C1048.69 544.3 1189.09 416.16 1193.59 411.63L1193.85 411.39H1193.82C1230.07 374.79 1252.53 324.5 1252.68 268.92ZM1140.99 322.86C1114 374.71 1050.08 394.86 998.24 367.86C946.39 340.87 926.24 276.95 953.23 225.11C980.22 173.26 1044.14 153.11 1095.98 180.11C1147.83 207.1 1167.98 271.02 1140.99 322.86Z" fill="#A7E92F"/>
<path d="M1225.24 268.92C1225.54 156.67 1134.78 65.4201 1022.53 65.1301C910.279 64.8301 819.029 155.59 818.739 267.84C818.599 321.29 839.129 369.94 872.759 406.31H872.739L872.879 406.44C879.789 413.9 1021.25 544.3 1021.25 544.3C1021.25 544.3 1161.65 416.16 1166.15 411.63L1166.41 411.39H1166.38C1202.62 374.79 1225.09 324.5 1225.24 268.92ZM1113.55 322.86C1086.56 374.71 1022.64 394.86 970.799 367.86C918.949 340.87 898.799 276.95 925.789 225.11C952.779 173.26 1016.7 153.11 1068.54 180.11C1120.39 207.1 1140.54 271.02 1113.55 322.86Z" stroke="black" stroke-width="7" stroke-miterlimit="10" stroke-linecap="round" stroke-linejoin="round"/>
<path d="M540.18 711.62C540.33 655.93 495.31 610.67 439.62 610.52C383.93 610.37 338.67 655.39 338.52 711.08C338.45 737.59 348.63 761.73 365.32 779.77H365.31L365.38 779.83C368.81 783.53 438.99 848.22 438.99 848.22C438.99 848.22 508.64 784.65 510.87 782.4L511 782.28H510.98C528.97 764.14 540.11 739.2 540.18 711.62ZM484.78 738.38C471.39 764.1 439.68 774.1 413.96 760.71C388.24 747.32 378.24 715.61 391.63 689.89C405.02 664.17 436.73 654.17 462.45 667.56C488.17 680.96 498.17 712.66 484.78 738.38Z" fill="#A7E92F"/>
<path d="M526.571 711.62C526.721 655.93 481.701 610.67 426.011 610.52C370.321 610.37 325.061 655.39 324.911 711.08C324.841 737.59 335.021 761.73 351.711 779.77H351.701L351.771 779.83C355.201 783.53 425.381 848.22 425.381 848.22C425.381 848.22 495.031 784.65 497.261 782.4L497.391 782.28H497.371C515.351 764.14 526.501 739.2 526.571 711.62ZM471.161 738.38C457.771 764.1 426.061 774.1 400.341 760.71C374.621 747.32 364.621 715.61 378.011 689.89C391.401 664.17 423.11 654.17 448.83 667.56C474.56 680.96 484.551 712.66 471.161 738.38Z" stroke="black" stroke-width="5" stroke-miterlimit="10" stroke-linecap="round" stroke-linejoin="round"/>
<path d="M454.13 292.95C454.32 221.12 396.25 162.74 324.42 162.55C252.59 162.36 194.21 220.43 194.02 292.26C193.93 326.46 207.06 357.59 228.59 380.86H228.58L228.67 380.94C233.09 385.71 323.61 469.15 323.61 469.15C323.61 469.15 413.44 387.16 416.33 384.26L416.5 384.11H416.48C439.66 360.69 454.04 328.52 454.13 292.95ZM382.67 327.47C365.4 360.65 324.5 373.54 291.33 356.27C258.15 339 245.26 298.1 262.53 264.93C279.8 231.75 320.7 218.86 353.87 236.13C387.04 253.4 399.94 294.29 382.67 327.47Z" fill="#A7E92F"/>
<path d="M436.569 292.95C436.759 221.12 378.689 162.74 306.859 162.55C235.029 162.36 176.649 220.43 176.459 292.26C176.369 326.46 189.499 357.59 211.029 380.86H211.019L211.109 380.94C215.529 385.71 306.049 469.15 306.049 469.15C306.049 469.15 395.879 387.16 398.769 384.26L398.939 384.11H398.919C422.099 360.69 436.479 328.52 436.569 292.95ZM365.109 327.47C347.839 360.65 306.939 373.54 273.769 356.27C240.589 339 227.699 298.1 244.969 264.93C262.239 231.75 303.139 218.86 336.309 236.13C369.489 253.4 382.379 294.29 365.109 327.47Z" stroke="black" stroke-width="6" stroke-miterlimit="10" stroke-linecap="round" stroke-linejoin="round"/>
<path d="M713.679 437.33C713.789 396.91 681.099 364.05 640.679 363.94C600.259 363.83 567.399 396.52 567.289 436.94C567.239 456.19 574.629 473.71 586.739 486.81H586.729L586.779 486.86C589.269 489.55 640.209 536.51 640.209 536.51C640.209 536.51 690.769 490.36 692.389 488.73L692.479 488.64H692.469C705.529 475.45 713.619 457.34 713.679 437.33ZM673.449 456.75C663.729 475.42 640.709 482.68 622.039 472.96C603.369 463.24 596.109 440.22 605.829 421.55C615.549 402.88 638.569 395.62 657.239 405.34C675.919 415.06 683.179 438.08 673.449 456.75Z" fill="#A7E92F"/>
<path d="M703.791 437.33C703.901 396.91 671.211 364.05 630.791 363.94C590.371 363.83 557.511 396.52 557.401 436.94C557.351 456.19 564.741 473.71 576.851 486.81H576.841L576.891 486.86C579.381 489.55 630.321 536.51 630.321 536.51C630.321 536.51 680.881 490.36 682.501 488.73L682.591 488.64H682.581C695.651 475.45 703.741 457.34 703.791 437.33ZM663.571 456.75C653.851 475.42 630.831 482.68 612.161 472.96C593.491 463.24 586.231 440.22 595.951 421.55C605.671 402.88 628.691 395.62 647.361 405.34C666.041 415.06 673.291 438.08 663.571 456.75Z" stroke="black" stroke-width="5" stroke-miterlimit="10" stroke-linecap="round" stroke-linejoin="round"/>
<path d="M1687.95 939.53C1687.95 939.53 1542.06 848.9 1528.08 831.29C1514.1 813.69 1503.12 733.99 1449.77 705.29C1396.42 676.59 1369.85 680.25 1332.5 669.99C1295.15 659.73 1139.46 551.1 1115.9 561.2C1092.34 571.3 1190.73 707.03 1190.73 707.03L1066.11 716.9" stroke="black" stroke-width="7" stroke-miterlimit="10" stroke-linecap="round" stroke-linejoin="round"/>
<path d="M1450.11 812.97C1450.11 812.97 1425.94 758.3 1323.8 748.99C1221.66 739.68 1090.97 766.78 1080.57 767.08C1070.16 767.38 1027.24 698.92 1015.27 677.31C1003.3 655.69 995.42 561.68 962.14 562.44C928.86 563.2 944.37 696.18 957.1 765.61C969.83 835.04 1009.19 865.87 1016.12 855.98C1023.05 846.09 912.74 644.09 834.04 596.98C755.34 549.87 748.64 571.2 781.45 635.83C814.26 700.46 922.83 838.99 922.83 838.99" stroke="black" stroke-width="7" stroke-miterlimit="10" stroke-linecap="round" stroke-linejoin="round"/>
<path d="M1362.23 1037.28C1362.23 1037.28 1291.23 959.56 1253 942.32C1214.77 925.08 961.159 884.28 846.819 856.45C732.489 828.63 643.829 790.16 657.019 765.13C670.209 740.1 867.129 765.32 867.129 765.32" stroke="black" stroke-width="7" stroke-miterlimit="10" stroke-linecap="round" stroke-linejoin="round"/>
</svg>
