<svg width="65" height="64" viewBox="0 0 65 64" fill="none" xmlns="http://www.w3.org/2000/svg">
<path d="M30.545 34.7069L28.545 32.7069C28.15 32.3164 28.15 31.6834 28.545 31.2929C28.935 30.9024 29.5649 30.9024 29.9549 31.2929L31.25 32.5859L34.545 29.2929C34.935 28.9024 35.5649 28.9024 35.9549 29.2929C36.3498 29.6834 36.3498 30.3164 35.9549 30.7069L31.9549 34.7069C31.7699 34.8929 31.5149 34.9999 31.25 34.9999C30.985 34.9999 30.73 34.8934 30.545 34.7069Z" fill="white"/>
<path fill-rule="evenodd" clip-rule="evenodd" d="M35.9886 41.6733C35.8197 41.8583 35.5825 41.9797 35.318 41.9976C35.2954 41.9992 35.2727 42 35.2499 42H27.25C25.595 41.9995 24.25 40.657 24.25 39V25C24.25 23.343 25.595 22.0005 27.25 22H37.2499C38.9049 22.0005 40.2499 23.343 40.2499 25V37C40.2499 37.0256 40.2489 37.0512 40.247 37.0765C40.24 37.1687 40.2204 37.2584 40.189 37.3436C40.1334 37.4949 40.0422 37.6291 39.9257 37.7361L35.9886 41.6733ZM38.2499 25V36H36.25C35.145 36.0005 34.25 36.895 34.25 38V40H27.25C26.97 39.9995 26.725 39.8895 26.545 39.707C26.36 39.523 26.25 39.2795 26.25 39V25C26.25 24.7205 26.36 24.477 26.545 24.293C26.725 24.1105 26.97 24.0005 27.25 24H37.2499C37.5299 24.0005 37.7749 24.1105 37.9549 24.293C38.1398 24.477 38.2499 24.7205 38.2499 25Z" fill="white"/>
<rect x="1.25" y="1" width="62" height="62" rx="31" stroke="#A7E92F" stroke-width="2"/>
</svg>
