<svg width="65" height="64" viewBox="0 0 65 64" fill="none" xmlns="http://www.w3.org/2000/svg">
<path fill-rule="evenodd" clip-rule="evenodd" d="M26.2516 22.7586C26.631 22.2794 27.2086 22 27.8197 22H36.8522C37.4633 22 38.0409 22.2794 38.4203 22.7586L40.904 25.896C41.0861 26.126 41.2141 26.3916 41.2813 26.6733C41.3167 26.7757 41.3359 26.8856 41.3359 27C41.3359 27.0192 41.3354 27.0383 41.3343 27.0572C41.3354 27.0839 41.3359 27.1106 41.3359 27.1374V38C41.3359 40.2091 39.5451 42 37.3359 42H27.3359C25.1268 42 23.3359 40.2091 23.3359 38V27.1374C23.3359 27.1106 23.3365 27.0839 23.3375 27.0572C23.3365 27.0383 23.3359 27.0192 23.3359 27C23.3359 26.8856 23.3552 26.7756 23.3905 26.6733C23.4577 26.3916 23.5858 26.126 23.7678 25.896L26.2516 22.7586ZM36.8522 24L38.4355 26H26.2364L27.8197 24L36.8522 24ZM25.3359 38V28H39.3359V38C39.3359 39.1046 38.4405 40 37.3359 40H27.3359C26.2314 40 25.3359 39.1046 25.3359 38ZM32.3359 35C33.4839 35 34.61 34.6105 35.4616 33.8806C36.3179 33.1466 36.8359 32.115 36.8359 31H34.8359C34.8359 31.4763 34.6164 31.9708 34.16 32.3621C33.6988 32.7574 33.0445 33 32.3359 33C31.6274 33 30.973 32.7574 30.5119 32.3621C30.0554 31.9708 29.8359 31.4763 29.8359 31H27.8359C27.8359 32.115 28.3539 33.1466 29.2103 33.8806C30.0618 34.6105 31.188 35 32.3359 35Z" fill="white"/>
<rect x="1.66797" y="1" width="62" height="62" rx="31" stroke="#A7E92F" stroke-width="2"/>
</svg>
