<svg width="64" height="64" viewBox="0 0 64 64" fill="none" xmlns="http://www.w3.org/2000/svg">
<path d="M31 27C31 26.4477 31.4477 26 32 26C32.5523 26 33 26.4477 33 27V32C33 32.5523 32.5523 33 32 33C31.6707 33 31.3786 32.8408 31.1964 32.5952C31.1561 32.5656 31.1175 32.5325 31.081 32.4961L28.1593 29.5743C27.7687 29.1838 27.7687 28.5506 28.1593 28.1601C28.5498 27.7696 29.1829 27.7696 29.5735 28.1601L31 29.5866V27Z" fill="white"/>
<path fill-rule="evenodd" clip-rule="evenodd" d="M32 22C37.525 22.0005 41.9999 26.4765 41.9999 32C41.9999 37.5235 37.525 41.9995 32 42C26.475 41.9995 22 37.5235 22 32C22 26.4765 26.475 22.0005 32 22ZM37.655 37.657C39.105 36.206 39.9999 34.2125 39.9999 32C39.9999 29.7875 39.105 27.794 37.655 26.343C36.205 24.894 34.21 24.0005 32 24C29.79 24.0005 27.795 24.894 26.345 26.343C24.895 27.794 24 29.7875 24 32C24 34.2125 24.895 36.206 26.345 37.657C27.795 39.106 29.79 39.9995 32 40C34.21 39.9995 36.205 39.106 37.655 37.657Z" fill="white"/>
<rect x="1" y="1" width="62" height="62" rx="31" stroke="#A7E92F" stroke-width="2"/>
</svg>
