<svg width="64" height="64" viewBox="0 0 64 64" fill="none" xmlns="http://www.w3.org/2000/svg">
<path fill-rule="evenodd" clip-rule="evenodd" d="M36.5 23C34.0147 23 32 25.0147 32 27.5C32 29.9853 34.0147 32 36.5 32C38.9853 32 41 29.9853 41 27.5C41 25.0147 38.9853 23 36.5 23ZM34 27.5C34 26.1193 35.1193 25 36.5 25C37.8807 25 39 26.1193 39 27.5C39 28.8807 37.8807 30 36.5 30C35.1193 30 34 28.8807 34 27.5Z" fill="#323942"/>
<path d="M36.5001 33C32.5133 33 30.014 35.8884 29.5709 39.0033C29.4931 39.5501 29.9477 40 30.5 40C31.0523 40 31.4905 39.5482 31.5958 39.006C32.0131 36.858 33.7744 35 36.5001 35C39.2257 35 40.9869 36.858 41.4042 39.006C41.5095 39.5482 41.9477 40 42.5 40C43.0523 40 43.5069 39.5501 43.4291 39.0033C42.986 35.8884 40.4869 33 36.5001 33Z" fill="#323942"/>
<path d="M21.5 41C20.9477 41 20.4937 40.5504 20.5667 40.0029C20.9743 36.9458 23.2377 34 27.0001 34C27.6293 34 28.2248 34.085 28.7814 34.2442C29.3124 34.396 29.5238 35.0012 29.2867 35.5C29.0497 35.9988 28.4521 36.1986 27.9108 36.089C27.6252 36.0311 27.3217 36 27.0001 36C24.6043 36 22.9671 37.8062 22.5854 40.0047C22.4909 40.5489 22.0523 41 21.5 41Z" fill="#323942"/>
<path fill-rule="evenodd" clip-rule="evenodd" d="M27 25C24.7909 25 23 26.7909 23 29C23 31.2091 24.7909 33 27 33C29.2091 33 31 31.2091 31 29C31 26.7909 29.2091 25 27 25ZM25 29C25 27.8954 25.8954 27 27 27C28.1046 27 29 27.8954 29 29C29 30.1046 28.1046 31 27 31C25.8954 31 25 30.1046 25 29Z" fill="#323942"/>
<rect x="1" y="1" width="62" height="62" rx="31" stroke="#A7E92F" stroke-width="2"/>
</svg>
