<svg width="1000" height="1000" viewBox="0 0 1000 1000" fill="none" xmlns="http://www.w3.org/2000/svg">
<path d="M634.68 713.43L630.78 708.02C630.7 707.19 629.9 706.58 629.09 706.81C628.08 707.09 627.07 707.13 626.08 706.73C615.58 702.5 583.69 659.13 626.98 690.82C627.9 691.49 629.19 690.76 629.08 689.63L624.75 642.58C624.3 637.65 622.53 632.94 619.62 628.93C611.07 617.13 592.7 591.84 587.93 585.58C581.65 577.33 543.96 552.99 545.53 540.43C546.65 531.48 558.52 532.49 565.26 533.81C566.57 534.07 567.41 532.47 566.47 531.52L548.86 513.91C548.46 513.51 547.87 513.39 547.35 513.62C538.83 517.42 530.07 524.65 523.53 531.31C523.38 531.47 523.26 531.65 523.2 531.86C520.85 539.75 530.82 558.68 517.43 568.65C511.35 573.18 521.12 594.6 501.67 587.82C501.29 587.69 500.87 587.72 500.52 587.91C480.96 598.83 492.37 615.31 495.58 618.59C512.35 635.76 537.21 609.25 537.66 609.46C551.45 616 559.83 626.92 560.6 627.95C560.64 628 560.67 628.06 560.71 628.12C568.59 642.93 563.31 656.09 541.08 636.08C540.93 635.94 540.74 635.83 540.55 635.77C526.86 631.51 516.3 637.86 514.38 638.14C498.17 640.48 473.75 663.09 471.99 674.04C469.65 688.58 470.02 701.96 478.13 714.58C486.92 728.25 491.81 735.25 508.91 731.09C516.94 729.14 524.54 724.27 532.55 732.51C537.54 737.64 542.48 758.82 544.76 768.28C547.07 777.87 542.93 781.34 541.88 789.55C540.64 799.21 543.31 804.4 546.89 813.12C550.18 821.15 549.65 829.37 558.24 831.48C563.48 832.77 573 826.95 576.78 824.13C581.77 820.41 583.92 815.99 587.79 811.68C587.93 811.53 588.1 811.41 588.28 811.33C590.33 810.47 592.36 809.57 594.36 808.63C594.68 808.48 594.94 808.2 595.07 807.87C596.25 804.69 596.66 801.41 596.29 798.02C596.26 797.76 596.3 797.48 596.42 797.25C598.9 792.5 604.58 791.82 607.36 787.64C611.62 781.23 610 777.4 610.57 770.17C612.03 751.64 621.97 745.27 632.57 731.57C632.59 731.55 632.65 731.49 632.76 731.39C637.89 726.76 638.71 719.03 634.68 713.43Z" fill="#A7E92F"/>
<path d="M614.28 803.51C607.53 809.98 611.04 821.84 621.21 815.09C624.1 813.17 634.59 794.22 634.67 791.12C635.11 774.94 625.84 792.45 614.28 803.51Z" fill="#A7E92F"/>
<path d="M336.12 509.4L345.52 507.45C345.52 507.45 359.18 498.76 364.39 498.57C367.28 498.46 374.33 502.39 373.82 505.23C373.44 507.35 365.5 507.45 365.5 507.45L356.99 522.99L358.65 532.42L365.31 537.41L365.86 547.95L376.4 545.73L395.45 525.75L408.21 527.97C414.71 527.58 414.95 579.19 406.37 589.73C397.4 597.29 397.86 580.15 377.38 588.93C369.48 592.32 379.31 597.75 378.35 603.3C378.16 604.4 348.07 618.6 349.44 621.69C356.61 637.86 353.48 653.07 353.46 653.03C349.02 644.15 341.04 625.67 340.88 625.65C313.5 622.69 307.15 673.47 310.92 676.11C316.19 679.79 327.41 707.66 327.41 707.66C341.34 710.8 339.29 702.98 347.07 706.39C358.14 711.24 376.11 715.5 384.75 723.46C394.85 732.76 392.45 742.27 406.49 748.39C415.04 752.12 428.24 752.81 429.4 763.7C430.18 771.03 422.81 776.71 421.41 783.52C420.35 788.64 408.27 794.75 406.91 799.85C404.67 808.25 396.09 838.33 395.5 845.36C394.85 853.13 399.1 865.47 393.66 863.05C386.49 859.85 379.63 853.08 375.5 846.12C367.4 832.51 365.23 815.42 359.34 800.94C355.16 790.66 351.71 792.64 343.96 785.58C338.66 780.75 330.91 767.33 327.77 760.58C324.36 753.25 323.99 744.84 325.76 737.71C326.74 733.77 333.34 719.19 326.98 715.58C323.47 713.63 321.16 712.82 318.96 710.87C316.26 708.48 288.56 684.03 285.82 675.82C282.79 666.72 265.34 626.44 263.42 622.66C263.42 622.66 272.25 590.56 295.22 556.99C318.19 523.42 336.12 509.4 336.12 509.4Z" fill="#A7E92F"/>
<path d="M428.95 521.32C428.95 521.32 434.87 513.18 437.09 512.44C439.31 511.7 445.23 508 445.23 508C445.23 508 448.93 508 451.89 507.26C454.85 506.52 460.77 502.82 460.77 502.82L474.09 501.34C474.09 501.34 483.71 496.16 482.23 490.98C480.75 485.8 485.19 482.84 488.15 482.1C491.11 481.36 501.47 473.96 495.55 471.74C489.63 469.52 491.11 466.56 477.79 468.04C464.47 469.52 469.65 470.26 450.41 471C431.17 471.74 432.65 468.78 422.29 473.96C411.93 479.14 400.09 476.92 408.23 482.84C416.37 488.76 417.85 486.54 417.85 491.72C417.85 496.9 413.41 490.98 414.89 500.6C416.37 510.22 428.95 521.32 428.95 521.32Z" fill="#A7E92F"/>
<path d="M651.07 797.46C625.03 834.6 588.24 863.64 545.21 880.07" stroke="black" stroke-width="5" stroke-miterlimit="10" stroke-linecap="round" stroke-linejoin="round"/>
<path d="M340.08 858.86C276.79 818.17 234.87 747.13 234.87 666.3C234.87 539.96 337.29 437.54 463.63 437.54C505.68 437.54 545.08 448.89 578.94 468.69" stroke="black" stroke-width="5" stroke-miterlimit="10" stroke-linecap="round" stroke-linejoin="round"/>
<path d="M611.35 680.39C568.06 648.7 599.95 692.07 610.45 696.3C614.89 698.09 619.72 691.18 623.54 692.52C633.56 696.03 621.9 714.56 618.07 719.68C607.06 734.42 596.47 740.56 594.95 759.74C594.38 766.97 596 770.81 591.74 777.21C588.89 781.49 582.99 782.1 580.62 787.18C581.09 790.9 580.63 794.49 579.24 797.96C576.97 799.03 574.68 800.05 572.36 801.02C568.36 805.4 566.22 809.91 561.14 813.7C557.35 816.53 547.84 822.35 542.6 821.05C534.02 818.93 534.54 810.71 531.25 802.69C527.68 793.96 525 788.77 526.24 779.12C527.29 770.91 531.43 767.44 529.12 757.85C526.84 748.39 521.9 727.21 516.91 722.08C508.9 713.84 501.3 718.71 493.27 720.66C476.17 724.82 471.28 717.82 462.49 704.15C454.38 691.54 454.02 678.15 456.35 663.61C458.11 652.66 482.53 630.05 498.74 627.71C500.67 627.43 511.37 620.99 525.21 625.44C547.68 645.8 553 632.5 545.02 617.6C545.02 617.6 536.51 605.9 522.02 599.03C521.57 598.81 496.7 625.33 479.94 608.16C476.7 604.85 465.11 588.09 485.44 577.18C505.68 584.61 495.66 562.8 501.8 558.22C515.37 548.11 504.94 528.81 507.67 521.12C517.36 511.21 532.04 499.9 543.57 500.53" stroke="black" stroke-width="5" stroke-miterlimit="10" stroke-linecap="round" stroke-linejoin="round"/>
<path d="M598.64 793.08C591.89 799.55 595.4 811.41 605.57 804.66C608.46 802.74 618.95 783.79 619.03 780.69C619.47 764.51 610.2 782.02 598.64 793.08Z" stroke="black" stroke-width="5" stroke-miterlimit="10" stroke-linecap="round" stroke-linejoin="round"/>
<path d="M378.03 852.64C370.86 849.44 364 842.67 359.87 835.71C351.77 822.1 349.6 805.01 343.71 790.53C339.53 780.25 336.08 782.23 328.33 775.17C323.03 770.34 315.28 756.92 312.14 750.17C308.73 742.84 308.36 734.43 310.13 727.3C311.11 723.36 317.71 708.78 311.35 705.17C307.84 703.22 305.53 702.41 303.33 700.46C300.63 698.07 272.93 673.62 270.19 665.41C267.16 656.31 252.08 618.39 250.16 614.61" stroke="black" stroke-width="5" stroke-miterlimit="10" stroke-linecap="round" stroke-linejoin="round"/>
<path d="M320.48 498.97L329.88 497.02C329.88 497.02 343.54 488.33 348.75 488.14C351.64 488.03 358.69 491.96 358.18 494.8C357.8 496.92 349.86 497.02 349.86 497.02L341.35 512.56L343.01 521.99L349.67 526.98L350.22 537.52L360.76 535.3L379.81 515.32L392.57 517.54C399.07 517.15 399.31 568.76 390.73 579.3C381.76 586.85 382.22 569.72 361.74 578.5C353.84 581.89 363.67 587.32 362.71 592.87C362.52 593.97 332.43 608.17 333.8 611.26C340.97 627.43 337.84 642.64 337.82 642.6C333.38 633.72 325.4 615.24 325.24 615.22C297.86 612.26 291.51 663.04 295.28 665.68C300.55 669.36 311.77 697.23 311.77 697.23C325.7 700.37 323.65 692.55 331.43 695.96C342.5 700.81 360.47 705.07 369.11 713.03C379.21 722.33 376.81 731.84 390.85 737.96C399.4 741.69 412.6 742.38 413.76 753.27C414.54 760.6 407.17 766.28 405.77 773.09C404.71 778.21 392.63 784.32 391.27 789.42C389.03 797.82 380.45 827.9 379.86 834.93" stroke="black" stroke-width="5" stroke-miterlimit="10" stroke-linecap="round" stroke-linejoin="round"/>
<path d="M336.54 665.67L347.64 668.45L350.41 676.22H357.07" stroke="black" stroke-width="5" stroke-miterlimit="10" stroke-linecap="round" stroke-linejoin="round"/>
<path d="M413.31 510.9C413.31 510.9 419.23 502.76 421.45 502.02C423.67 501.28 429.59 497.58 429.59 497.58C429.59 497.58 433.29 497.58 436.25 496.84C439.21 496.1 445.13 492.4 445.13 492.4L458.45 490.92C458.45 490.92 468.07 485.74 466.59 480.56C465.11 475.38 469.55 472.42 472.51 471.68C475.47 470.94 485.83 463.54 479.91 461.32C473.99 459.1 475.47 456.14 462.15 457.62C448.83 459.1 454.01 459.84 434.77 460.58C415.53 461.32 417.01 458.36 406.65 463.54C396.29 468.72 384.45 466.5 392.59 472.42C400.73 478.34 402.21 476.12 402.21 481.3C402.21 486.48 397.77 480.56 399.25 490.18C400.73 499.8 413.31 510.9 413.31 510.9Z" stroke="black" stroke-width="5" stroke-miterlimit="10" stroke-linecap="round" stroke-linejoin="round"/>
<path d="M544.65 288.72C553.43 271.64 554.97 254.42 554.97 254.42C554.97 254.42 588.6 255.08 592.49 223.06C594.03 210.37 591.12 202.91 586.3 199.07" stroke="black" stroke-width="5" stroke-miterlimit="22.9256" stroke-linecap="round" stroke-linejoin="round"/>
<path d="M445.73 212.7C445.73 212.7 447.1 224.24 435.69 240.87C426.33 254.52 448.61 262.33 448.61 262.33" stroke="black" stroke-width="5" stroke-miterlimit="22.9256" stroke-linecap="round" stroke-linejoin="round"/>
<path d="M467.46 194.52C467.46 194.52 471.76 187.89 484.53 188.69C499.08 189.6 504.77 199.96 504.77 199.96" stroke="black" stroke-width="5" stroke-miterlimit="22.9256" stroke-linecap="round" stroke-linejoin="round"/>
<path d="M432.59 195.38C432.59 195.38 413.9 186.29 402.16 206.55" stroke="black" stroke-width="5" stroke-miterlimit="22.9256" stroke-linecap="round" stroke-linejoin="round"/>
<path d="M487.814 221.557C491.066 221.046 493.22 217.567 492.626 213.786C492.032 210.005 488.915 207.354 485.663 207.865C482.411 208.376 480.256 211.855 480.85 215.636C481.444 219.417 484.562 222.068 487.814 221.557Z" fill="black"/>
<path d="M427.513 226.118C430.765 225.607 432.919 222.128 432.325 218.347C431.731 214.566 428.614 211.915 425.362 212.426C422.11 212.936 419.956 216.416 420.55 220.197C421.144 223.978 424.261 226.629 427.513 226.118Z" fill="black"/>
<path d="M397.16 166.58C397.16 166.58 402.82 209.98 401.85 233.48C400.88 256.98 404.62 300.36 428.54 322.92C452.46 345.48 497.01 340.77 521.59 314.84" stroke="black" stroke-width="5" stroke-miterlimit="22.9256" stroke-linecap="round" stroke-linejoin="round"/>
<path d="M628.58 380.63C660 389.4 695.56 408.63 726.34 437.76C794.25 502.02 814.44 533.81 849.59 622.02C881.52 702.16 890.79 769.78 864.55 812.04C818.82 885.74 674.45 880 650.82 695.43L631.13 638.59C631.13 638.59 684.04 629.17 700.13 600.9L739.88 651.16C739.88 651.16 781.99 678.94 822.33 732.24" stroke="black" stroke-width="5" stroke-miterlimit="22.9256" stroke-linecap="round" stroke-linejoin="round"/>
<path d="M554.96 254.42L565.55 316.23" stroke="black" stroke-width="5" stroke-miterlimit="22.9256" stroke-linecap="round" stroke-linejoin="round"/>
<path d="M388.29 387.7C388.29 387.7 349.32 397.01 304.66 434.23C211.18 512.13 169.79 633.88 175.59 722.84C181.83 818.6 246.43 895.71 279.8 884.33" stroke="black" stroke-width="5" stroke-miterlimit="22.9256" stroke-linecap="round" stroke-linejoin="round"/>
<path d="M400.02 211.3C400.02 211.3 382.94 201.43 374.96 181.65C365.62 158.52 378.25 148.5 378.25 148.5C378.25 148.5 363.22 121.13 375.17 96.46C391.38 63 432.99 71.21 432.99 71.21C432.99 71.21 443.57 61.4 468.55 59.36C500.35 56.76 535.04 68.32 542.5 98.58C542.5 98.58 575.85 98.55 587.51 130.77C599.17 162.99 581.26 194.95 581.26 194.95C581.26 194.95 577.65 190.77 565.86 193.83C551.94 197.45 545.57 219.62 545.57 219.62C545.57 219.62 526.53 207.12 519.16 173.14C515.82 157.72 516 144.87 516 144.87C516 144.87 487.38 164.84 446.86 167.77C414.87 170.08 397.4 163.8 397.4 163.8L400.02 211.3Z" fill="black"/>
<path d="M438.72 284.89C438.72 284.89 458.28 294.77 480.52 277.79" stroke="black" stroke-width="5" stroke-miterlimit="22.9256" stroke-linecap="round" stroke-linejoin="round"/>
<path d="M328.37 917.92C305.7 912.91 279.81 884.32 279.81 884.32" stroke="black" stroke-width="5" stroke-miterlimit="22.9256" stroke-linecap="round" stroke-linejoin="round"/>
<path d="M404.2 301.32C404.2 301.32 377.5 325.7 381.82 362.57C386.92 406.15 429.72 430.1 429.72 430.1" stroke="black" stroke-width="5" stroke-miterlimit="22.9256" stroke-linecap="round" stroke-linejoin="round"/>
<path d="M628.58 380.63C628.58 380.63 643.3 342.94 635.06 313.49C623.26 271.34 570.87 258.13 570.87 258.13" stroke="black" stroke-width="5" stroke-miterlimit="22.9256" stroke-linecap="round" stroke-linejoin="round"/>
<path d="M614.3 395.76C614.3 395.76 593.17 421.92 566.86 435.67" stroke="black" stroke-width="5" stroke-miterlimit="22.9256" stroke-linecap="round" stroke-linejoin="round"/>
<path d="M514.44 917.92C514.44 917.92 475.62 953.09 405.45 940.23C363.48 932.53 334.3 913.97 334.3 913.97C331.36 903.66 345.01 867.98 345.01 867.98" stroke="black" stroke-width="5" stroke-miterlimit="22.9256" stroke-linecap="round" stroke-linejoin="round"/>
<path d="M353.94 870.63C353.94 870.63 393.39 864.01 413.08 861.74C435.1 859.2 474.8 856.52 476.61 862.59C480.56 875.86 412.44 891.84 412.44 891.84C412.44 891.84 457.59 891.61 485.08 881.79C512.56 871.97 528.27 866.32 529.45 874.95C530.63 883.59 486.5 912.28 441.6 915.95" stroke="black" stroke-width="5" stroke-miterlimit="22.9256" stroke-linecap="round" stroke-linejoin="round"/>
<path d="M526.69 893.4C526.69 893.4 505.97 920.46 447.8 928.09" stroke="black" stroke-width="5" stroke-miterlimit="22.9256" stroke-linecap="round" stroke-linejoin="round"/>
<path d="M700.14 600.9C700.14 600.9 699.34 560.99 693.95 546.89C683.07 518.44 664.22 496.65 659.8 505.19" stroke="black" stroke-width="5" stroke-miterlimit="22.9256" stroke-linecap="round" stroke-linejoin="round"/>
<path d="M283.76 873.88C283.76 873.88 291.38 846.49 308 835.69" stroke="black" stroke-width="5" stroke-miterlimit="22.9256" stroke-linecap="round" stroke-linejoin="round"/>
<path d="M682.35 553.15C682.35 553.15 654.76 502.14 619.06 482.21C594.22 468.34 607.39 491.72 607.39 491.72C607.39 491.72 587.91 472.24 579.88 481.21C573.23 488.63 623.58 542.6 623.58 542.6C623.58 542.6 574.47 496.72 560.56 501.67C546.65 506.62 603.55 559.68 603.55 559.68C603.55 559.68 557.85 531.83 553.67 542.96C549.49 554.09 587.98 572.17 602.82 592.57C617.66 612.97 631.34 634.77 631.34 634.77" stroke="black" stroke-width="5" stroke-miterlimit="22.9256" stroke-linecap="round" stroke-linejoin="round"/>
<path d="M739.89 651.15C739.89 651.15 730.07 691.2 671.57 692.77" stroke="black" stroke-width="5" stroke-miterlimit="22.9256" stroke-linecap="round" stroke-linejoin="round"/>
<path d="M618.27 501.37L652.73 537.59" stroke="black" stroke-width="5" stroke-miterlimit="22.9256" stroke-linecap="round" stroke-linejoin="round"/>
<path d="M788.77 682.76C788.77 682.76 817.59 687.9 838.3 699.95" stroke="black" stroke-width="5" stroke-miterlimit="22.9256" stroke-linecap="round" stroke-linejoin="round"/>
<path d="M417.6 334.02C417.6 334.02 489.32 374.11 493.27 410.82C497.22 447.53 445.55 422.68 497.51 373.55C549.47 324.42 592.66 308.04 592.66 308.04" stroke="black" stroke-width="5" stroke-miterlimit="22.9256" stroke-linecap="round" stroke-linejoin="round"/>
</svg>
